<?xml version="1.0" encoding="UTF-8" standalone="no"?>
<!-- Created with Inkscape (http://www.inkscape.org/) -->

<svg
   width="41.974998mm"
   height="30.105mm"
   viewBox="0 0 41.974998 30.105"
   version="1.1"
   id="svg1157"
   xmlns="http://www.w3.org/2000/svg"
   xmlns:svg="http://www.w3.org/2000/svg">
  <defs
     id="defs1154" />
  <g
     id="layer1"
     transform="translate(-9.8597615,-8.109287)">
    <g
       style="fill:#000000;fill-opacity:0;stroke:#000000;stroke-width:100000;stroke-linecap:round;stroke-linejoin:round;stroke-opacity:1"
       id="g838"
       transform="matrix(9.9999996e-7,0,0,9.9999996e-7,-95.752234,-69.76071)">
      <path
         id="path822"
         d="m 136135980,88729856 v -10809856 0 h -19072910 v 0 10809739 0 c 10,350432 -34420,700016 -102780,1043715 -68360,343700 -170320,679851 -304420,1003610 -134100,323759 -299680,633560 -494370,924937 -194680,291376 -417520,562920 -665310,810717 -247790,247797 -519320,470649 -810690,665344 -291370,194695 -601170,360291 -924920,494401 -323750,134111 -659900,236087 -1003600,304459 -343690,68373 -675230,102810 -1025660,102817 l -830,117 h -6068490 v 0 13845144 0 h 41875000 v 0 -13845144 h -150 -6051030 v 0 c -350440,0 -700030,-34432 -1043730,-102799 -343710,-68367 -679860,-170339 -1003630,-304446 -323760,-134107 -633560,-299700 -924940,-494393 -291380,-194693 -562920,-417544 -810720,-665341 -247800,-247797 -470650,-519342 -665340,-810720 -194690,-291379 -360290,-601182 -494390,-924945 -134110,-323762 -236080,-659918 -304450,-1003623 -68370,-343704 -102800,-693295 -102800,-1043733 z" />
      <g
         id="g824" />
      <g
         id="g826" />
      <g
         id="g828" />
      <g
         id="g830" />
      <g
         id="g832" />
      <g
         id="g834" />
      <g
         id="g836" />
    </g>
  </g>
</svg>
