%TF.GenerationSoftware,KiCad,Pcbnew,(6.99.0)*%
%TF.CreationDate,2022-02-09T14:01:33-06:00*%
%TF.ProjectId,CDI-SPLITTER,4344492d-5350-44c4-9954-5445522e6b69,rev?*%
%TF.SameCoordinates,Original*%
%TF.FileFunction,Legend,Bot*%
%TF.FilePolarity,Positive*%
%FSLAX46Y46*%
G04 Gerber Fmt 4.6, Leading zero omitted, Abs format (unit mm)*
G04 Created by KiCad (PCBNEW (6.99.0)) date 2022-02-09 14:01:33*
%MOMM*%
%LPD*%
G01*
G04 APERTURE LIST*
%ADD10C,0.150000*%
G04 APERTURE END LIST*
D10*
X120490476Y-79285714D02*
X120252380Y-79952380D01*
X120014285Y-79285714D01*
X119442857Y-78952380D02*
X119347619Y-78952380D01*
X119252380Y-79000000D01*
X119204761Y-79047619D01*
X119157142Y-79142857D01*
X119109523Y-79333333D01*
X119109523Y-79571428D01*
X119157142Y-79761904D01*
X119204761Y-79857142D01*
X119252380Y-79904761D01*
X119347619Y-79952380D01*
X119442857Y-79952380D01*
X119538095Y-79904761D01*
X119585714Y-79857142D01*
X119633333Y-79761904D01*
X119680952Y-79571428D01*
X119680952Y-79333333D01*
X119633333Y-79142857D01*
X119585714Y-79047619D01*
X119538095Y-79000000D01*
X119442857Y-78952380D01*
X118157142Y-79952380D02*
X118728571Y-79952380D01*
X118442857Y-79952380D02*
X118442857Y-78952380D01*
X118538095Y-79095238D01*
X118633333Y-79190476D01*
X118728571Y-79238095D01*
X134442857Y-79857142D02*
X134490476Y-79904761D01*
X134633333Y-79952380D01*
X134728571Y-79952380D01*
X134871428Y-79904761D01*
X134966666Y-79809523D01*
X135014285Y-79714285D01*
X135061904Y-79523809D01*
X135061904Y-79380952D01*
X135014285Y-79190476D01*
X134966666Y-79095238D01*
X134871428Y-79000000D01*
X134728571Y-78952380D01*
X134633333Y-78952380D01*
X134490476Y-79000000D01*
X134442857Y-79047619D01*
X134014285Y-79952380D02*
X134014285Y-78952380D01*
X133776190Y-78952380D01*
X133633333Y-79000000D01*
X133538095Y-79095238D01*
X133490476Y-79190476D01*
X133442857Y-79380952D01*
X133442857Y-79523809D01*
X133490476Y-79714285D01*
X133538095Y-79809523D01*
X133633333Y-79904761D01*
X133776190Y-79952380D01*
X134014285Y-79952380D01*
X133014285Y-79952380D02*
X133014285Y-79285714D01*
X133014285Y-78952380D02*
X133061904Y-79000000D01*
X133014285Y-79047619D01*
X132966666Y-79000000D01*
X133014285Y-78952380D01*
X133014285Y-79047619D01*
X131823809Y-79904761D02*
X131680952Y-79952380D01*
X131442857Y-79952380D01*
X131347619Y-79904761D01*
X131300000Y-79857142D01*
X131252380Y-79761904D01*
X131252380Y-79666666D01*
X131300000Y-79571428D01*
X131347619Y-79523809D01*
X131442857Y-79476190D01*
X131633333Y-79428571D01*
X131728571Y-79380952D01*
X131776190Y-79333333D01*
X131823809Y-79238095D01*
X131823809Y-79142857D01*
X131776190Y-79047619D01*
X131728571Y-79000000D01*
X131633333Y-78952380D01*
X131395238Y-78952380D01*
X131252380Y-79000000D01*
X130823809Y-79952380D02*
X130823809Y-78952380D01*
X130442857Y-78952380D01*
X130347619Y-79000000D01*
X130300000Y-79047619D01*
X130252380Y-79142857D01*
X130252380Y-79285714D01*
X130300000Y-79380952D01*
X130347619Y-79428571D01*
X130442857Y-79476190D01*
X130823809Y-79476190D01*
X129347619Y-79952380D02*
X129823809Y-79952380D01*
X129823809Y-78952380D01*
X129014285Y-79952380D02*
X129014285Y-78952380D01*
X128680952Y-78952380D02*
X128109523Y-78952380D01*
X128395238Y-79952380D02*
X128395238Y-78952380D01*
X127919047Y-78952380D02*
X127347619Y-78952380D01*
X127633333Y-79952380D02*
X127633333Y-78952380D01*
X127014285Y-79428571D02*
X126680952Y-79428571D01*
X126538095Y-79952380D02*
X127014285Y-79952380D01*
X127014285Y-78952380D01*
X126538095Y-78952380D01*
X125538095Y-79952380D02*
X125871428Y-79476190D01*
X126109523Y-79952380D02*
X126109523Y-78952380D01*
X125728571Y-78952380D01*
X125633333Y-79000000D01*
X125585714Y-79047619D01*
X125538095Y-79142857D01*
X125538095Y-79285714D01*
X125585714Y-79380952D01*
X125633333Y-79428571D01*
X125728571Y-79476190D01*
X126109523Y-79476190D01*
%TO.C,G\u002A\u002A\u002A*%
G36*
X131662995Y-106361136D02*
G01*
X131578424Y-106534588D01*
X131447140Y-106683565D01*
X131270013Y-106797387D01*
X131248234Y-106806951D01*
X131058005Y-106853031D01*
X130853801Y-106844236D01*
X130652684Y-106781020D01*
X130584077Y-106746910D01*
X130504948Y-106700859D01*
X130465201Y-106668374D01*
X130438661Y-106647668D01*
X130361313Y-106632232D01*
X130260849Y-106636694D01*
X130160150Y-106659274D01*
X130082097Y-106698190D01*
X130020055Y-106742365D01*
X129834574Y-106828056D01*
X129643282Y-106858053D01*
X129455556Y-106836909D01*
X129280771Y-106769176D01*
X129128302Y-106659409D01*
X129007525Y-106512158D01*
X128927815Y-106331979D01*
X128898549Y-106123423D01*
X128903181Y-106076021D01*
X129099558Y-106076021D01*
X129099614Y-106182755D01*
X129145509Y-106351283D01*
X129242515Y-106492775D01*
X129382777Y-106597319D01*
X129558441Y-106655005D01*
X129644890Y-106656968D01*
X129783136Y-106629109D01*
X129915299Y-106574378D01*
X130012359Y-106502525D01*
X130063270Y-106471102D01*
X130164258Y-106445425D01*
X130287684Y-106434373D01*
X130412313Y-106438316D01*
X130516907Y-106457623D01*
X130580229Y-106492662D01*
X130593000Y-106505750D01*
X130662567Y-106556028D01*
X130753622Y-106604914D01*
X130903924Y-106653093D01*
X131072062Y-106652413D01*
X131228536Y-106588314D01*
X131373913Y-106460662D01*
X131411650Y-106412362D01*
X131484779Y-106256210D01*
X131502640Y-106089951D01*
X131467382Y-105926968D01*
X131381154Y-105780648D01*
X131246102Y-105664375D01*
X131240123Y-105660778D01*
X131203906Y-105642027D01*
X131160912Y-105627587D01*
X131102890Y-105616897D01*
X131021586Y-105609398D01*
X130908746Y-105604531D01*
X130756117Y-105601735D01*
X130555448Y-105600452D01*
X130298483Y-105600121D01*
X130137634Y-105600148D01*
X129917207Y-105600694D01*
X129748109Y-105602412D01*
X129622091Y-105605932D01*
X129530899Y-105611883D01*
X129466281Y-105620897D01*
X129419986Y-105633604D01*
X129383761Y-105650634D01*
X129349354Y-105672618D01*
X129230391Y-105772089D01*
X129139954Y-105908815D01*
X129099558Y-106076021D01*
X128903181Y-106076021D01*
X128915523Y-105949731D01*
X128988145Y-105754735D01*
X129117040Y-105590936D01*
X129301271Y-105459878D01*
X129324998Y-105447564D01*
X129371966Y-105427617D01*
X129427257Y-105412549D01*
X129500243Y-105401483D01*
X129600294Y-105393538D01*
X129736781Y-105387836D01*
X129919074Y-105383498D01*
X130156544Y-105379645D01*
X130297366Y-105377753D01*
X130556345Y-105375761D01*
X130763075Y-105377349D01*
X130925922Y-105383435D01*
X131053251Y-105394941D01*
X131153428Y-105412785D01*
X131234817Y-105437887D01*
X131305785Y-105471166D01*
X131374695Y-105513541D01*
X131516724Y-105636198D01*
X131627717Y-105800741D01*
X131688512Y-105983532D01*
X131694924Y-106089951D01*
X131699981Y-106173891D01*
X131662995Y-106361136D01*
G37*
G36*
X128251523Y-106087230D02*
G01*
X128252351Y-106251115D01*
X128252351Y-106632783D01*
X128139390Y-106632783D01*
X128106058Y-106632494D01*
X128050964Y-106623075D01*
X128029849Y-106586342D01*
X128026430Y-106503685D01*
X128026430Y-106374587D01*
X127703685Y-106374587D01*
X127703685Y-106632783D01*
X127445489Y-106632783D01*
X127445489Y-106255638D01*
X127445558Y-106200945D01*
X127447385Y-106053363D01*
X127453248Y-105953124D01*
X127458740Y-105922745D01*
X127703685Y-105922745D01*
X127703685Y-106180940D01*
X128026430Y-106180940D01*
X128026430Y-105922745D01*
X127703685Y-105922745D01*
X127458740Y-105922745D01*
X127465209Y-105886960D01*
X127485327Y-105841606D01*
X127515664Y-105803795D01*
X127524745Y-105794388D01*
X127568278Y-105759947D01*
X127624571Y-105740197D01*
X127710864Y-105731220D01*
X127844397Y-105729098D01*
X127846066Y-105729098D01*
X127981572Y-105731669D01*
X128070331Y-105741763D01*
X128129854Y-105763069D01*
X128177653Y-105799273D01*
X128195851Y-105817293D01*
X128221918Y-105852918D01*
X128238454Y-105901122D01*
X128241136Y-105922745D01*
X128247606Y-105974896D01*
X128251523Y-106087230D01*
G37*
G36*
X126955384Y-106632783D02*
G01*
X126826596Y-106631898D01*
X126715618Y-106627001D01*
X126642602Y-106615516D01*
X126592923Y-106594900D01*
X126551953Y-106562608D01*
X126523542Y-106532781D01*
X126498789Y-106489696D01*
X126487428Y-106439136D01*
X126735451Y-106439136D01*
X126881699Y-106439136D01*
X126963843Y-106435699D01*
X127018886Y-106416810D01*
X127047179Y-106370251D01*
X127055790Y-106283807D01*
X127051789Y-106145266D01*
X127042059Y-105938882D01*
X126735451Y-105919208D01*
X126735451Y-106439136D01*
X126487428Y-106439136D01*
X126484825Y-106427552D01*
X126478648Y-106331192D01*
X126477256Y-106185463D01*
X126477749Y-106092695D01*
X126482083Y-105975586D01*
X126493256Y-105898652D01*
X126514096Y-105846515D01*
X126547430Y-105803795D01*
X126549366Y-105801744D01*
X126586291Y-105768540D01*
X126630621Y-105747317D01*
X126696638Y-105735432D01*
X126798624Y-105730241D01*
X126950861Y-105729098D01*
X127284117Y-105729098D01*
X127284117Y-106632783D01*
X126955384Y-106632783D01*
G37*
G36*
X126315055Y-106087230D02*
G01*
X126315883Y-106251115D01*
X126315883Y-106632783D01*
X126057688Y-106632783D01*
X126057688Y-106374587D01*
X125767217Y-106374587D01*
X125767217Y-106632783D01*
X125509022Y-106632783D01*
X125509022Y-106255638D01*
X125509091Y-106200945D01*
X125510917Y-106053363D01*
X125516780Y-105953124D01*
X125522272Y-105922745D01*
X125767217Y-105922745D01*
X125767217Y-106180940D01*
X126057688Y-106180940D01*
X126057688Y-105922745D01*
X125767217Y-105922745D01*
X125522272Y-105922745D01*
X125528741Y-105886960D01*
X125548860Y-105841606D01*
X125579197Y-105803795D01*
X125588277Y-105794388D01*
X125631811Y-105759947D01*
X125688103Y-105740197D01*
X125774396Y-105731220D01*
X125907930Y-105729098D01*
X125909598Y-105729098D01*
X126045105Y-105731669D01*
X126133863Y-105741763D01*
X126193386Y-105763069D01*
X126241186Y-105799273D01*
X126259384Y-105817293D01*
X126285451Y-105852918D01*
X126301986Y-105901122D01*
X126304669Y-105922745D01*
X126311139Y-105974896D01*
X126315055Y-106087230D01*
G37*
G36*
X125089454Y-106632783D02*
G01*
X125089454Y-106374587D01*
X124889819Y-106374587D01*
X124818765Y-106372713D01*
X124684385Y-106349786D01*
X124598936Y-106294592D01*
X124553907Y-106199371D01*
X124540788Y-106056365D01*
X124545027Y-105957242D01*
X124553347Y-105922745D01*
X124798984Y-105922745D01*
X124798984Y-106180940D01*
X125089454Y-106180940D01*
X125089454Y-105922745D01*
X124798984Y-105922745D01*
X124553347Y-105922745D01*
X124566174Y-105869557D01*
X124610963Y-105803795D01*
X124612898Y-105801744D01*
X124649823Y-105768540D01*
X124694153Y-105747317D01*
X124760170Y-105735432D01*
X124862156Y-105730241D01*
X125014394Y-105729098D01*
X125347650Y-105729098D01*
X125347650Y-106632783D01*
X125089454Y-106632783D01*
G37*
G36*
X124443965Y-105825921D02*
G01*
X124443761Y-105846712D01*
X124434444Y-105898201D01*
X124397645Y-105918921D01*
X124314867Y-105922745D01*
X124185769Y-105922745D01*
X124185769Y-106632783D01*
X123927573Y-106632783D01*
X123927573Y-105922745D01*
X123798475Y-105922745D01*
X123770754Y-105922592D01*
X123702102Y-105915604D01*
X123674476Y-105888005D01*
X123669378Y-105825921D01*
X123669378Y-105729098D01*
X124443965Y-105729098D01*
X124443965Y-105825921D01*
G37*
G36*
X123540280Y-106121919D02*
G01*
X123539457Y-106257665D01*
X123535075Y-106390778D01*
X123525636Y-106480116D01*
X123509720Y-106537518D01*
X123485904Y-106574824D01*
X123464802Y-106594564D01*
X123423932Y-106614816D01*
X123359760Y-106625541D01*
X123258578Y-106628581D01*
X123106679Y-106625777D01*
X122781830Y-106616645D01*
X122771618Y-106527891D01*
X122761405Y-106439136D01*
X123039935Y-106439136D01*
X123172675Y-106438383D01*
X123253757Y-106433653D01*
X123295912Y-106421231D01*
X123311869Y-106397402D01*
X123314359Y-106358450D01*
X123313947Y-106336935D01*
X123305158Y-106303512D01*
X123274021Y-106285859D01*
X123206469Y-106278950D01*
X123088437Y-106277764D01*
X122862516Y-106277764D01*
X122862516Y-106084117D01*
X123088437Y-106084117D01*
X123148680Y-106083970D01*
X123242262Y-106080831D01*
X123291693Y-106069710D01*
X123311036Y-106045585D01*
X123314359Y-106003431D01*
X123311911Y-105964668D01*
X123296033Y-105940688D01*
X123253946Y-105928214D01*
X123172870Y-105923485D01*
X123040026Y-105922745D01*
X122765693Y-105922745D01*
X122765693Y-105729098D01*
X123540280Y-105729098D01*
X123540280Y-106121919D01*
G37*
G36*
X122491360Y-106632783D02*
G01*
X122441092Y-106631887D01*
X122397154Y-106619044D01*
X122380811Y-106576786D01*
X122378399Y-106487548D01*
X122377890Y-106435153D01*
X122369634Y-106371912D01*
X122342316Y-106346797D01*
X122284643Y-106342313D01*
X122280193Y-106342343D01*
X122217401Y-106354453D01*
X122165051Y-106398153D01*
X122105773Y-106487548D01*
X122083298Y-106524954D01*
X122031675Y-106594629D01*
X121980212Y-106625687D01*
X121909059Y-106632783D01*
X121846159Y-106626163D01*
X121801239Y-106591998D01*
X121806190Y-106524244D01*
X121859860Y-106417880D01*
X121874504Y-106393717D01*
X121903713Y-106335897D01*
X121898798Y-106299764D01*
X121859740Y-106259574D01*
X121828730Y-106221565D01*
X121804431Y-106145509D01*
X121797459Y-106025176D01*
X121797460Y-106022433D01*
X121797515Y-106021049D01*
X122023380Y-106021049D01*
X122026544Y-106075760D01*
X122046591Y-106104111D01*
X122099410Y-106114765D01*
X122200890Y-106116391D01*
X122203604Y-106116391D01*
X122303909Y-106114666D01*
X122355884Y-106103731D01*
X122375418Y-106074920D01*
X122378399Y-106019568D01*
X122378399Y-106018087D01*
X122375236Y-105963376D01*
X122355188Y-105935025D01*
X122302369Y-105924370D01*
X122200890Y-105922745D01*
X122198175Y-105922745D01*
X122097870Y-105924470D01*
X122045895Y-105935405D01*
X122026361Y-105964216D01*
X122023380Y-106019568D01*
X122023380Y-106021049D01*
X121797515Y-106021049D01*
X121802099Y-105906403D01*
X121822303Y-105825677D01*
X121867850Y-105773920D01*
X121948514Y-105744795D01*
X122074073Y-105731966D01*
X122254303Y-105729098D01*
X122604320Y-105729098D01*
X122604320Y-106632783D01*
X122491360Y-106632783D01*
G37*
G36*
X128149016Y-104770826D02*
G01*
X128213622Y-104799593D01*
X128234730Y-104842610D01*
X128250319Y-104937150D01*
X128253956Y-105056416D01*
X128246221Y-105178884D01*
X128227689Y-105283031D01*
X128198937Y-105347332D01*
X128197944Y-105348416D01*
X128121735Y-105394315D01*
X128019119Y-105411108D01*
X127908050Y-105402158D01*
X127806484Y-105370833D01*
X127732377Y-105320496D01*
X127703685Y-105254513D01*
X127704901Y-105244788D01*
X127727360Y-105225857D01*
X127787894Y-105221961D01*
X127899170Y-105231618D01*
X128094655Y-105253734D01*
X128084748Y-105079917D01*
X128080485Y-105018287D01*
X128068144Y-104944190D01*
X128043434Y-104908798D01*
X127998501Y-104895298D01*
X127944206Y-104896091D01*
X127887155Y-104919504D01*
X127854454Y-104940068D01*
X127789186Y-104953378D01*
X127729683Y-104945451D01*
X127703685Y-104916709D01*
X127715533Y-104879944D01*
X127757099Y-104819886D01*
X127760146Y-104816759D01*
X127828067Y-104783297D01*
X127931807Y-104763763D01*
X128046934Y-104759244D01*
X128149016Y-104770826D01*
G37*
G36*
X127535858Y-105367624D02*
G01*
X127507540Y-105382438D01*
X127426256Y-105399648D01*
X127320547Y-105406353D01*
X127212806Y-105401706D01*
X127117035Y-105376506D01*
X127060190Y-105319772D01*
X127039590Y-105244981D01*
X127183920Y-105244981D01*
X127413215Y-105244981D01*
X127413215Y-104885872D01*
X127308323Y-104895986D01*
X127253303Y-104903682D01*
X127217759Y-104925202D01*
X127201552Y-104976742D01*
X127193676Y-105075540D01*
X127183920Y-105244981D01*
X127039590Y-105244981D01*
X127032932Y-105220810D01*
X127025921Y-105068924D01*
X127029926Y-104955400D01*
X127043549Y-104853217D01*
X127064651Y-104799593D01*
X127085054Y-104787394D01*
X127163212Y-104769661D01*
X127270624Y-104762014D01*
X127384037Y-104764454D01*
X127480199Y-104776980D01*
X127535858Y-104799593D01*
X127554959Y-104845135D01*
X127569371Y-104945086D01*
X127574587Y-105083609D01*
X127570412Y-105208758D01*
X127565743Y-105244981D01*
X127556906Y-105313540D01*
X127535858Y-105367624D01*
G37*
G36*
X126464695Y-104762904D02*
G01*
X126494797Y-104780695D01*
X126507145Y-104830578D01*
X126509530Y-104928763D01*
X126509530Y-105096662D01*
X126627066Y-104928763D01*
X126690795Y-104844912D01*
X126759847Y-104780486D01*
X126820713Y-104760864D01*
X126835797Y-104761060D01*
X126865175Y-104767153D01*
X126883188Y-104790675D01*
X126892615Y-104843404D01*
X126896235Y-104937122D01*
X126896824Y-105083609D01*
X126896772Y-105156199D01*
X126895275Y-105277679D01*
X126889516Y-105351651D01*
X126876611Y-105389897D01*
X126853675Y-105404203D01*
X126817824Y-105406353D01*
X126785949Y-105404489D01*
X126753661Y-105386606D01*
X126737518Y-105336323D01*
X126729069Y-105237567D01*
X126719314Y-105068781D01*
X126598339Y-105237567D01*
X126553329Y-105296444D01*
X126473612Y-105377823D01*
X126412760Y-105406353D01*
X126409245Y-105406326D01*
X126381017Y-105400760D01*
X126363133Y-105377390D01*
X126353254Y-105324530D01*
X126349042Y-105230498D01*
X126348158Y-105083609D01*
X126348158Y-104760864D01*
X126428844Y-104760864D01*
X126464695Y-104762904D01*
G37*
G36*
X126060776Y-104761219D02*
G01*
X126162988Y-104764714D01*
X126220443Y-104774316D01*
X126245705Y-104792882D01*
X126251334Y-104823269D01*
X126232435Y-104871724D01*
X126162580Y-104895887D01*
X126127402Y-104901143D01*
X126096357Y-104916899D01*
X126079010Y-104955377D01*
X126070109Y-105030509D01*
X126064399Y-105156226D01*
X126060694Y-105244999D01*
X126053411Y-105335622D01*
X126039967Y-105383820D01*
X126015624Y-105402945D01*
X125975644Y-105406353D01*
X125942981Y-105404804D01*
X125916497Y-105391383D01*
X125902588Y-105352912D01*
X125897209Y-105276225D01*
X125896315Y-105148158D01*
X125896315Y-104889962D01*
X125799492Y-104889962D01*
X125774498Y-104889296D01*
X125717884Y-104872661D01*
X125702669Y-104825413D01*
X125704433Y-104803841D01*
X125719950Y-104780584D01*
X125762136Y-104767649D01*
X125843613Y-104762065D01*
X125977001Y-104760864D01*
X126060776Y-104761219D01*
G37*
G36*
X125557433Y-105406353D02*
G01*
X125509903Y-105401056D01*
X125482776Y-105369783D01*
X125476747Y-105293393D01*
X125474962Y-105246365D01*
X125457756Y-105194166D01*
X125414831Y-105180432D01*
X125405518Y-105181391D01*
X125344866Y-105217467D01*
X125283101Y-105293393D01*
X125280466Y-105297618D01*
X125210013Y-105380379D01*
X125135233Y-105406353D01*
X125127894Y-105406209D01*
X125069208Y-105383549D01*
X125061837Y-105324488D01*
X125106318Y-105232263D01*
X125128867Y-105195285D01*
X125137743Y-105152848D01*
X125106318Y-105116487D01*
X125106270Y-105116447D01*
X125072159Y-105054136D01*
X125059899Y-104970648D01*
X125234689Y-104970648D01*
X125239178Y-104992105D01*
X125283020Y-105032932D01*
X125352645Y-105050748D01*
X125422021Y-105041920D01*
X125465117Y-105002814D01*
X125467572Y-104942188D01*
X125419642Y-104901945D01*
X125327375Y-104895507D01*
X125324234Y-104895879D01*
X125254983Y-104918875D01*
X125234689Y-104970648D01*
X125059899Y-104970648D01*
X125058401Y-104960447D01*
X125065987Y-104865544D01*
X125095909Y-104799593D01*
X125142951Y-104780190D01*
X125244649Y-104765978D01*
X125386379Y-104760864D01*
X125638120Y-104760864D01*
X125638120Y-105406353D01*
X125557433Y-105406353D01*
G37*
G36*
X124928082Y-105083609D02*
G01*
X124923907Y-105208758D01*
X124910401Y-105313540D01*
X124889352Y-105367624D01*
X124868949Y-105379824D01*
X124790791Y-105397557D01*
X124683379Y-105405203D01*
X124569966Y-105402763D01*
X124473804Y-105390237D01*
X124418145Y-105367624D01*
X124399044Y-105322083D01*
X124384632Y-105222131D01*
X124379416Y-105083609D01*
X124383590Y-104958459D01*
X124392420Y-104889962D01*
X124540788Y-104889962D01*
X124540788Y-105244981D01*
X124766709Y-105244981D01*
X124766709Y-104889962D01*
X124540788Y-104889962D01*
X124392420Y-104889962D01*
X124397097Y-104853677D01*
X124418145Y-104799593D01*
X124438548Y-104787394D01*
X124516706Y-104769661D01*
X124624118Y-104762014D01*
X124737531Y-104764454D01*
X124833693Y-104776980D01*
X124889352Y-104799593D01*
X124908453Y-104845135D01*
X124914917Y-104889962D01*
X124922865Y-104945086D01*
X124928082Y-105083609D01*
G37*
G36*
X124205357Y-104762709D02*
G01*
X124231008Y-104776970D01*
X124244394Y-104816681D01*
X124249501Y-104894876D01*
X124250318Y-105024587D01*
X124249808Y-105087611D01*
X124242868Y-105214638D01*
X124225997Y-105296594D01*
X124196904Y-105347332D01*
X124195777Y-105348564D01*
X124145556Y-105383271D01*
X124065558Y-105401233D01*
X123938708Y-105406353D01*
X123912786Y-105406327D01*
X123812403Y-105403959D01*
X123758969Y-105393602D01*
X123737728Y-105369443D01*
X123733927Y-105325667D01*
X123736835Y-105285371D01*
X123756837Y-105258145D01*
X123809773Y-105247075D01*
X123911436Y-105244981D01*
X124088946Y-105244981D01*
X124088946Y-105002922D01*
X124089242Y-104917903D01*
X124092929Y-104828804D01*
X124104534Y-104781995D01*
X124128591Y-104763881D01*
X124169632Y-104760864D01*
X124205357Y-104762709D01*
G37*
G36*
X123560637Y-104760868D02*
G01*
X123597681Y-104763940D01*
X123620281Y-104781316D01*
X123632006Y-104825557D01*
X123636423Y-104909224D01*
X123637103Y-105044879D01*
X123637103Y-105044986D01*
X123632448Y-105202270D01*
X123619191Y-105312712D01*
X123598374Y-105367624D01*
X123558529Y-105385463D01*
X123465537Y-105400692D01*
X123340178Y-105406353D01*
X123290169Y-105406253D01*
X123194632Y-105403343D01*
X123144054Y-105392439D01*
X123124170Y-105368295D01*
X123120712Y-105325667D01*
X123123620Y-105285371D01*
X123143623Y-105258145D01*
X123196558Y-105247075D01*
X123298221Y-105244981D01*
X123475731Y-105244981D01*
X123475731Y-105002922D01*
X123476027Y-104917903D01*
X123479714Y-104828804D01*
X123491320Y-104781995D01*
X123515377Y-104763881D01*
X123556417Y-104760864D01*
X123560637Y-104760868D01*
G37*
G36*
X123056163Y-105024587D02*
G01*
X123055653Y-105087611D01*
X123048713Y-105214638D01*
X123031842Y-105296594D01*
X123002749Y-105347332D01*
X122992377Y-105357744D01*
X122940825Y-105387134D01*
X122858379Y-105402144D01*
X122728416Y-105406353D01*
X122676086Y-105406243D01*
X122580998Y-105403281D01*
X122530684Y-105392327D01*
X122510924Y-105368187D01*
X122507497Y-105325667D01*
X122510405Y-105285371D01*
X122530408Y-105258145D01*
X122583343Y-105247075D01*
X122685007Y-105244981D01*
X122790660Y-105240795D01*
X122846580Y-105225764D01*
X122862516Y-105196569D01*
X122852190Y-105171284D01*
X122802625Y-105153340D01*
X122701144Y-105148158D01*
X122663819Y-105147881D01*
X122584330Y-105141635D01*
X122548268Y-105122325D01*
X122539771Y-105083609D01*
X122540462Y-105068679D01*
X122556078Y-105036883D01*
X122604352Y-105022458D01*
X122701144Y-105019060D01*
X122738469Y-105018783D01*
X122817958Y-105012537D01*
X122854020Y-104993227D01*
X122862516Y-104954511D01*
X122860623Y-104931865D01*
X122841029Y-104904877D01*
X122787589Y-104892764D01*
X122685007Y-104889962D01*
X122622731Y-104889273D01*
X122548514Y-104882148D01*
X122515202Y-104862716D01*
X122507497Y-104825413D01*
X122509261Y-104803841D01*
X122524778Y-104780584D01*
X122566964Y-104767649D01*
X122648441Y-104762065D01*
X122781830Y-104760864D01*
X123056163Y-104760864D01*
X123056163Y-105024587D01*
G37*
G36*
X122289644Y-105400428D02*
G01*
X122250439Y-105393193D01*
X122207632Y-105360612D01*
X122190776Y-105285324D01*
X122174932Y-105216637D01*
X122136672Y-105183232D01*
X122082959Y-105208900D01*
X122019104Y-105293393D01*
X122015027Y-105300202D01*
X121947837Y-105381162D01*
X121874957Y-105406353D01*
X121861665Y-105405612D01*
X121807722Y-105376102D01*
X121797896Y-105317867D01*
X121836994Y-105250630D01*
X121860389Y-105206759D01*
X121836994Y-105147790D01*
X121836198Y-105146498D01*
X121808113Y-105064699D01*
X121799579Y-104970648D01*
X121974968Y-104970648D01*
X121976165Y-104987491D01*
X122003889Y-105027596D01*
X122079860Y-105045310D01*
X122142527Y-105047755D01*
X122177468Y-105028186D01*
X122184752Y-104970648D01*
X122180302Y-104920429D01*
X122151920Y-104894925D01*
X122079860Y-104895986D01*
X122052678Y-104899343D01*
X121991852Y-104922269D01*
X121974968Y-104970648D01*
X121799579Y-104970648D01*
X121798707Y-104961040D01*
X121808044Y-104863384D01*
X121836188Y-104799593D01*
X121883230Y-104780190D01*
X121984929Y-104765978D01*
X122126658Y-104760864D01*
X122378399Y-104760864D01*
X122378399Y-105410641D01*
X122289644Y-105400428D01*
G37*
G36*
X129021006Y-104536276D02*
G01*
X129076509Y-104552799D01*
X129091487Y-104595091D01*
X129092087Y-104602832D01*
X129119951Y-104668354D01*
X129176574Y-104740326D01*
X129197258Y-104760439D01*
X129236766Y-104791057D01*
X129284549Y-104810153D01*
X129354676Y-104820438D01*
X129461212Y-104824621D01*
X129618227Y-104825413D01*
X129695046Y-104825738D01*
X129844504Y-104830013D01*
X129952897Y-104841029D01*
X130036818Y-104861028D01*
X130112863Y-104892252D01*
X130159480Y-104918117D01*
X130274480Y-105015620D01*
X130353249Y-105134539D01*
X130382465Y-105256859D01*
X130380553Y-105292117D01*
X130356764Y-105332434D01*
X130289676Y-105341804D01*
X130254654Y-105340104D01*
X130202975Y-105315628D01*
X130177815Y-105246446D01*
X130166232Y-105203260D01*
X130127625Y-105136637D01*
X130060031Y-105088421D01*
X129954602Y-105055172D01*
X129802489Y-105033451D01*
X129594843Y-105019817D01*
X129441947Y-105010367D01*
X129302247Y-104996768D01*
X129196462Y-104981099D01*
X129139899Y-104965197D01*
X129091768Y-104933188D01*
X128975299Y-104809490D01*
X128903535Y-104655972D01*
X128870769Y-104534943D01*
X128981128Y-104534943D01*
X129021006Y-104536276D01*
G37*
G36*
X130971474Y-105799670D02*
G01*
X131028755Y-105808890D01*
X131070832Y-105840738D01*
X131086480Y-105914676D01*
X131095844Y-105973532D01*
X131125530Y-106011393D01*
X131193416Y-106019568D01*
X131255196Y-106024300D01*
X131281486Y-106052589D01*
X131280126Y-106124460D01*
X131273358Y-106170748D01*
X131245124Y-106220875D01*
X131181258Y-106239564D01*
X131170495Y-106240964D01*
X131109296Y-106265425D01*
X131092503Y-106322940D01*
X131088151Y-106371283D01*
X131070987Y-106417620D01*
X131031943Y-106432224D01*
X130958026Y-106439136D01*
X130914213Y-106436663D01*
X130875205Y-106412126D01*
X130866582Y-106344357D01*
X130862669Y-106291746D01*
X130834456Y-106254117D01*
X130761690Y-106239465D01*
X130704410Y-106230245D01*
X130662332Y-106198398D01*
X130646685Y-106124460D01*
X130645474Y-106111520D01*
X130646058Y-106048551D01*
X130675483Y-106023842D01*
X130751577Y-106019568D01*
X130765222Y-106019534D01*
X130834637Y-106012935D01*
X130861872Y-105981163D01*
X130866582Y-105904562D01*
X130866616Y-105890379D01*
X130872686Y-105821923D01*
X130901696Y-105797629D01*
X130971474Y-105799670D01*
G37*
G36*
X130010901Y-106137472D02*
G01*
X130049531Y-106192728D01*
X130055625Y-106261227D01*
X130022201Y-106313963D01*
X129990972Y-106330611D01*
X129919737Y-106334129D01*
X129864970Y-106275701D01*
X129860048Y-106265598D01*
X129853667Y-106189661D01*
X129896829Y-106135995D01*
X129976210Y-106122902D01*
X130010901Y-106137472D01*
G37*
G36*
X129635792Y-106025905D02*
G01*
X129709175Y-106059422D01*
X129734311Y-106123513D01*
X129703415Y-106198628D01*
X129670967Y-106231647D01*
X129626203Y-106240397D01*
X129561680Y-106202687D01*
X129523469Y-106156797D01*
X129519738Y-106091685D01*
X129559779Y-106040714D01*
X129634579Y-106025760D01*
X129635792Y-106025905D01*
G37*
G36*
X129363578Y-105941251D02*
G01*
X129399576Y-105979131D01*
X129411317Y-106013470D01*
X129393971Y-106067086D01*
X129354445Y-106106604D01*
X129289621Y-106112395D01*
X129227454Y-106085152D01*
X129194420Y-106029820D01*
X129196606Y-105986484D01*
X129235059Y-105930225D01*
X129298324Y-105911165D01*
X129363578Y-105941251D01*
G37*
%TD*%
M02*
