%TF.GenerationSoftware,KiCad,Pcbnew,(6.99.0)*%
%TF.CreationDate,2022-02-09T14:01:33-06:00*%
%TF.ProjectId,CDI-SPLITTER,4344492d-5350-44c4-9954-5445522e6b69,rev?*%
%TF.SameCoordinates,Original*%
%TF.FileFunction,Legend,Top*%
%TF.FilePolarity,Positive*%
%FSLAX46Y46*%
G04 Gerber Fmt 4.6, Leading zero omitted, Abs format (unit mm)*
G04 Created by KiCad (PCBNEW (6.99.0)) date 2022-02-09 14:01:33*
%MOMM*%
%LPD*%
G01*
G04 APERTURE LIST*
%ADD10C,0.150000*%
%ADD11C,0.254000*%
%ADD12C,0.200000*%
%ADD13C,0.100000*%
G04 APERTURE END LIST*
D10*
X116247619Y-94452380D02*
X116247619Y-93452380D01*
X116628571Y-93452380D01*
X116723809Y-93500000D01*
X116771428Y-93547619D01*
X116819047Y-93642857D01*
X116819047Y-93785714D01*
X116771428Y-93880952D01*
X116723809Y-93928571D01*
X116628571Y-93976190D01*
X116247619Y-93976190D01*
X117390476Y-94452380D02*
X117295238Y-94404761D01*
X117247619Y-94309523D01*
X117247619Y-93452380D01*
X118200000Y-94452380D02*
X118200000Y-93928571D01*
X118152380Y-93833333D01*
X118057142Y-93785714D01*
X117866666Y-93785714D01*
X117771428Y-93833333D01*
X118200000Y-94404761D02*
X118104761Y-94452380D01*
X117866666Y-94452380D01*
X117771428Y-94404761D01*
X117723809Y-94309523D01*
X117723809Y-94214285D01*
X117771428Y-94119047D01*
X117866666Y-94071428D01*
X118104761Y-94071428D01*
X118200000Y-94023809D01*
X118580952Y-93785714D02*
X118819047Y-94452380D01*
X119057142Y-93785714D02*
X118819047Y-94452380D01*
X118723809Y-94690476D01*
X118676190Y-94738095D01*
X118580952Y-94785714D01*
X119819047Y-94404761D02*
X119723809Y-94452380D01*
X119533333Y-94452380D01*
X119438095Y-94404761D01*
X119390476Y-94309523D01*
X119390476Y-93928571D01*
X119438095Y-93833333D01*
X119533333Y-93785714D01*
X119723809Y-93785714D01*
X119819047Y-93833333D01*
X119866666Y-93928571D01*
X119866666Y-94023809D01*
X119390476Y-94119047D01*
X120295238Y-94452380D02*
X120295238Y-93785714D01*
X120295238Y-93976190D02*
X120342857Y-93880952D01*
X120390476Y-93833333D01*
X120485714Y-93785714D01*
X120580952Y-93785714D01*
X122200000Y-94452380D02*
X121628571Y-94452380D01*
X121914285Y-94452380D02*
X121914285Y-93452380D01*
X121819047Y-93595238D01*
X121723809Y-93690476D01*
X121628571Y-93738095D01*
X131047619Y-94452380D02*
X131047619Y-93452380D01*
X131428571Y-93452380D01*
X131523809Y-93500000D01*
X131571428Y-93547619D01*
X131619047Y-93642857D01*
X131619047Y-93785714D01*
X131571428Y-93880952D01*
X131523809Y-93928571D01*
X131428571Y-93976190D01*
X131047619Y-93976190D01*
X132190476Y-94452380D02*
X132095238Y-94404761D01*
X132047619Y-94309523D01*
X132047619Y-93452380D01*
X133000000Y-94452380D02*
X133000000Y-93928571D01*
X132952380Y-93833333D01*
X132857142Y-93785714D01*
X132666666Y-93785714D01*
X132571428Y-93833333D01*
X133000000Y-94404761D02*
X132904761Y-94452380D01*
X132666666Y-94452380D01*
X132571428Y-94404761D01*
X132523809Y-94309523D01*
X132523809Y-94214285D01*
X132571428Y-94119047D01*
X132666666Y-94071428D01*
X132904761Y-94071428D01*
X133000000Y-94023809D01*
X133380952Y-93785714D02*
X133619047Y-94452380D01*
X133857142Y-93785714D02*
X133619047Y-94452380D01*
X133523809Y-94690476D01*
X133476190Y-94738095D01*
X133380952Y-94785714D01*
X134619047Y-94404761D02*
X134523809Y-94452380D01*
X134333333Y-94452380D01*
X134238095Y-94404761D01*
X134190476Y-94309523D01*
X134190476Y-93928571D01*
X134238095Y-93833333D01*
X134333333Y-93785714D01*
X134523809Y-93785714D01*
X134619047Y-93833333D01*
X134666666Y-93928571D01*
X134666666Y-94023809D01*
X134190476Y-94119047D01*
X135095238Y-94452380D02*
X135095238Y-93785714D01*
X135095238Y-93976190D02*
X135142857Y-93880952D01*
X135190476Y-93833333D01*
X135285714Y-93785714D01*
X135380952Y-93785714D01*
X136428571Y-93547619D02*
X136476190Y-93500000D01*
X136571428Y-93452380D01*
X136809523Y-93452380D01*
X136904761Y-93500000D01*
X136952380Y-93547619D01*
X137000000Y-93642857D01*
X137000000Y-93738095D01*
X136952380Y-93880952D01*
X136380952Y-94452380D01*
X137000000Y-94452380D01*
X124357142Y-91957142D02*
X124309523Y-92004761D01*
X124166666Y-92052380D01*
X124071428Y-92052380D01*
X123928571Y-92004761D01*
X123833333Y-91909523D01*
X123785714Y-91814285D01*
X123738095Y-91623809D01*
X123738095Y-91480952D01*
X123785714Y-91290476D01*
X123833333Y-91195238D01*
X123928571Y-91100000D01*
X124071428Y-91052380D01*
X124166666Y-91052380D01*
X124309523Y-91100000D01*
X124357142Y-91147619D01*
X124928571Y-92052380D02*
X124833333Y-92004761D01*
X124785714Y-91957142D01*
X124738095Y-91861904D01*
X124738095Y-91576190D01*
X124785714Y-91480952D01*
X124833333Y-91433333D01*
X124928571Y-91385714D01*
X125071428Y-91385714D01*
X125166666Y-91433333D01*
X125214285Y-91480952D01*
X125261904Y-91576190D01*
X125261904Y-91861904D01*
X125214285Y-91957142D01*
X125166666Y-92004761D01*
X125071428Y-92052380D01*
X124928571Y-92052380D01*
X125690476Y-91385714D02*
X125690476Y-92052380D01*
X125690476Y-91480952D02*
X125738095Y-91433333D01*
X125833333Y-91385714D01*
X125976190Y-91385714D01*
X126071428Y-91433333D01*
X126119047Y-91528571D01*
X126119047Y-92052380D01*
X126547619Y-92004761D02*
X126642857Y-92052380D01*
X126833333Y-92052380D01*
X126928571Y-92004761D01*
X126976190Y-91909523D01*
X126976190Y-91861904D01*
X126928571Y-91766666D01*
X126833333Y-91719047D01*
X126690476Y-91719047D01*
X126595238Y-91671428D01*
X126547619Y-91576190D01*
X126547619Y-91528571D01*
X126595238Y-91433333D01*
X126690476Y-91385714D01*
X126833333Y-91385714D01*
X126928571Y-91433333D01*
X127547619Y-92052380D02*
X127452380Y-92004761D01*
X127404761Y-91957142D01*
X127357142Y-91861904D01*
X127357142Y-91576190D01*
X127404761Y-91480952D01*
X127452380Y-91433333D01*
X127547619Y-91385714D01*
X127690476Y-91385714D01*
X127785714Y-91433333D01*
X127833333Y-91480952D01*
X127880952Y-91576190D01*
X127880952Y-91861904D01*
X127833333Y-91957142D01*
X127785714Y-92004761D01*
X127690476Y-92052380D01*
X127547619Y-92052380D01*
X128452380Y-92052380D02*
X128357142Y-92004761D01*
X128309523Y-91909523D01*
X128309523Y-91052380D01*
X129214285Y-92004761D02*
X129119047Y-92052380D01*
X128928571Y-92052380D01*
X128833333Y-92004761D01*
X128785714Y-91909523D01*
X128785714Y-91528571D01*
X128833333Y-91433333D01*
X128928571Y-91385714D01*
X129119047Y-91385714D01*
X129214285Y-91433333D01*
X129261904Y-91528571D01*
X129261904Y-91623809D01*
X128785714Y-91719047D01*
D11*
%TO.C,J3*%
X137576666Y-105704523D02*
X137576666Y-106611666D01*
X137516190Y-106793095D01*
X137395238Y-106914047D01*
X137213809Y-106974523D01*
X137092857Y-106974523D01*
X138060476Y-105704523D02*
X138846666Y-105704523D01*
X138423333Y-106188333D01*
X138604761Y-106188333D01*
X138725714Y-106248809D01*
X138786190Y-106309285D01*
X138846666Y-106430238D01*
X138846666Y-106732619D01*
X138786190Y-106853571D01*
X138725714Y-106914047D01*
X138604761Y-106974523D01*
X138241904Y-106974523D01*
X138120952Y-106914047D01*
X138060476Y-106853571D01*
%TO.C,J2*%
X114776666Y-105704523D02*
X114776666Y-106611666D01*
X114716190Y-106793095D01*
X114595238Y-106914047D01*
X114413809Y-106974523D01*
X114292857Y-106974523D01*
X115320952Y-105825476D02*
X115381428Y-105765000D01*
X115502380Y-105704523D01*
X115804761Y-105704523D01*
X115925714Y-105765000D01*
X115986190Y-105825476D01*
X116046666Y-105946428D01*
X116046666Y-106067380D01*
X115986190Y-106248809D01*
X115260476Y-106974523D01*
X116046666Y-106974523D01*
%TO.C,J1*%
X126176666Y-78704523D02*
X126176666Y-79611666D01*
X126116190Y-79793095D01*
X125995238Y-79914047D01*
X125813809Y-79974523D01*
X125692857Y-79974523D01*
X127446666Y-79974523D02*
X126720952Y-79974523D01*
X127083809Y-79974523D02*
X127083809Y-78704523D01*
X126962857Y-78885952D01*
X126841904Y-79006904D01*
X126720952Y-79067380D01*
D12*
%TO.C,J3*%
X139740000Y-108600000D02*
G75*
G03*
X139740000Y-108400000I0J100000D01*
G01*
X139740000Y-108400000D02*
G75*
G03*
X139740000Y-108600000I0J-100000D01*
G01*
D13*
X131000000Y-107910000D02*
X145000000Y-107910000D01*
X145000000Y-95080000D02*
X145000000Y-99910000D01*
D12*
X139740000Y-108400000D02*
X139740000Y-108400000D01*
D13*
X131000000Y-99910000D02*
X131000000Y-95080000D01*
X131000000Y-95080000D02*
X145000000Y-95080000D01*
D12*
X139740000Y-108600000D02*
X139740000Y-108600000D01*
%TO.C,J2*%
X116940000Y-108600000D02*
G75*
G03*
X116940000Y-108400000I0J100000D01*
G01*
X116940000Y-108400000D02*
G75*
G03*
X116940000Y-108600000I0J-100000D01*
G01*
D13*
X108200000Y-107910000D02*
X122200000Y-107910000D01*
X122200000Y-95080000D02*
X122200000Y-99910000D01*
D12*
X116940000Y-108400000D02*
X116940000Y-108400000D01*
D13*
X108200000Y-99910000D02*
X108200000Y-95080000D01*
X108200000Y-95080000D02*
X122200000Y-95080000D01*
D12*
X116940000Y-108600000D02*
X116940000Y-108600000D01*
%TO.C,J1*%
X124860000Y-77240000D02*
X124860000Y-77240000D01*
D13*
X133600000Y-90760000D02*
X119600000Y-90760000D01*
X133600000Y-85930000D02*
X133600000Y-90760000D01*
D12*
X124860000Y-77440000D02*
X124860000Y-77440000D01*
D13*
X119600000Y-90760000D02*
X119600000Y-85930000D01*
X133600000Y-77930000D02*
X119600000Y-77930000D01*
D12*
X124860000Y-77440000D02*
G75*
G03*
X124860000Y-77240000I0J100000D01*
G01*
X124860000Y-77240000D02*
G75*
G03*
X124860000Y-77440000I0J-100000D01*
G01*
%TD*%
M02*
