%TF.GenerationSoftware,KiCad,Pcbnew,(6.99.0)*%
%TF.CreationDate,2022-02-09T14:01:32-06:00*%
%TF.ProjectId,CDI-SPLITTER,4344492d-5350-44c4-9954-5445522e6b69,rev?*%
%TF.SameCoordinates,Original*%
%TF.FileFunction,Copper,L1,Top*%
%TF.FilePolarity,Positive*%
%FSLAX46Y46*%
G04 Gerber Fmt 4.6, Leading zero omitted, Abs format (unit mm)*
G04 Created by KiCad (PCBNEW (6.99.0)) date 2022-02-09 14:01:32*
%MOMM*%
%LPD*%
G01*
G04 APERTURE LIST*
%TA.AperFunction,ComponentPad*%
%ADD10C,3.555000*%
%TD*%
%TA.AperFunction,ComponentPad*%
%ADD11C,1.509000*%
%TD*%
%TA.AperFunction,Conductor*%
%ADD12C,0.762000*%
%TD*%
G04 APERTURE END LIST*
D10*
%TO.P,J3,MH3*%
%TO.N,GND*%
X144760000Y-102400000D03*
%TO.P,J3,MH2*%
X138000000Y-103210000D03*
%TO.P,J3,MH1*%
X131240000Y-102400000D03*
D11*
%TO.P,J3,8*%
%TO.N,+5V*%
X134650000Y-96910000D03*
%TO.P,J3,7*%
%TO.N,Net-(J1-Pad7)*%
X137190000Y-96910000D03*
%TO.P,J3,6*%
%TO.N,unconnected-(J3-Pad6)*%
X141350000Y-96910000D03*
%TO.P,J3,5*%
%TO.N,GND*%
X134650000Y-99400000D03*
%TO.P,J3,4*%
%TO.N,unconnected-(J3-Pad4)*%
X139300000Y-96910000D03*
%TO.P,J3,3*%
%TO.N,unconnected-(J3-Pad3)*%
X141350000Y-99400000D03*
%TO.P,J3,2*%
%TO.N,Net-(J1-Pad2)*%
X136700000Y-99400000D03*
%TO.P,J3,1*%
%TO.N,unconnected-(J3-Pad1)*%
X139300000Y-99400000D03*
%TD*%
D10*
%TO.P,J2,MH3*%
%TO.N,GND*%
X121960000Y-102400000D03*
%TO.P,J2,MH2*%
X115200000Y-103210000D03*
%TO.P,J2,MH1*%
X108440000Y-102400000D03*
D11*
%TO.P,J2,8*%
%TO.N,+5V*%
X111850000Y-96910000D03*
%TO.P,J2,7*%
%TO.N,Net-(J1-Pad4)*%
X114390000Y-96910000D03*
%TO.P,J2,6*%
%TO.N,Net-(J1-Pad6)*%
X118550000Y-96910000D03*
%TO.P,J2,5*%
%TO.N,GND*%
X111850000Y-99400000D03*
%TO.P,J2,4*%
%TO.N,unconnected-(J2-Pad4)*%
X116500000Y-96910000D03*
%TO.P,J2,3*%
%TO.N,Net-(J1-Pad3)*%
X118550000Y-99400000D03*
%TO.P,J2,2*%
%TO.N,Net-(J1-Pad1)*%
X113900000Y-99400000D03*
%TO.P,J2,1*%
%TO.N,unconnected-(J2-Pad1)*%
X116500000Y-99400000D03*
%TD*%
%TO.P,J1,1*%
%TO.N,Net-(J1-Pad1)*%
X125300000Y-86440000D03*
%TO.P,J1,2*%
%TO.N,Net-(J1-Pad2)*%
X127900000Y-86440000D03*
%TO.P,J1,3*%
%TO.N,Net-(J1-Pad3)*%
X123250000Y-86440000D03*
%TO.P,J1,4*%
%TO.N,Net-(J1-Pad4)*%
X125300000Y-88930000D03*
%TO.P,J1,5*%
%TO.N,GND*%
X129950000Y-86440000D03*
%TO.P,J1,6*%
%TO.N,Net-(J1-Pad6)*%
X123250000Y-88930000D03*
%TO.P,J1,7*%
%TO.N,Net-(J1-Pad7)*%
X127410000Y-88930000D03*
%TO.P,J1,8*%
%TO.N,+5V*%
X129950000Y-88930000D03*
D10*
%TO.P,J1,MH1*%
%TO.N,GND*%
X133360000Y-83440000D03*
%TO.P,J1,MH2*%
X126600000Y-82630000D03*
%TO.P,J1,MH3*%
X119840000Y-83440000D03*
%TD*%
D12*
%TO.N,+5V*%
X122700000Y-90700000D02*
X128180000Y-90700000D01*
X111850000Y-96910000D02*
X114160000Y-94600000D01*
X114160000Y-94600000D02*
X118800000Y-94600000D01*
X118800000Y-94600000D02*
X122700000Y-90700000D01*
X128180000Y-90700000D02*
X129950000Y-88930000D01*
X134650000Y-96910000D02*
X134650000Y-93630000D01*
X134650000Y-93630000D02*
X129950000Y-88930000D01*
%TD*%
%TA.AperFunction,Conductor*%
%TO.N,GND*%
G36*
X135570098Y-78478002D02*
G01*
X135616591Y-78531658D01*
X135627977Y-78584000D01*
X135627977Y-82331179D01*
X135607975Y-82399300D01*
X135554319Y-82445793D01*
X135484045Y-82455897D01*
X135419465Y-82426403D01*
X135388971Y-82386907D01*
X135345375Y-82298502D01*
X135341254Y-82291365D01*
X135179395Y-82049125D01*
X135174375Y-82042583D01*
X135159339Y-82025437D01*
X135146102Y-82017041D01*
X135136335Y-82022875D01*
X133732022Y-83427188D01*
X133724408Y-83441132D01*
X133724539Y-83442965D01*
X133728790Y-83449580D01*
X135134582Y-84855372D01*
X135148342Y-84862886D01*
X135157704Y-84856427D01*
X135174375Y-84837417D01*
X135179395Y-84830875D01*
X135341254Y-84588635D01*
X135345375Y-84581498D01*
X135388971Y-84493093D01*
X135437039Y-84440844D01*
X135505725Y-84422877D01*
X135573220Y-84444896D01*
X135618097Y-84499911D01*
X135627977Y-84548821D01*
X135627977Y-88675740D01*
X135626231Y-88696644D01*
X135622753Y-88717317D01*
X135622600Y-88729856D01*
X135623290Y-88734672D01*
X135623606Y-88739529D01*
X135623498Y-88739536D01*
X135623825Y-88743115D01*
X135641376Y-89189824D01*
X135641665Y-89192267D01*
X135641666Y-89192278D01*
X135661946Y-89363621D01*
X135695481Y-89646956D01*
X135785286Y-90098434D01*
X135785956Y-90100809D01*
X135785957Y-90100814D01*
X135791518Y-90120531D01*
X135910236Y-90541474D01*
X136069562Y-90973345D01*
X136070592Y-90975580D01*
X136070594Y-90975584D01*
X136151396Y-91150856D01*
X136262281Y-91391384D01*
X136263479Y-91393523D01*
X136263484Y-91393533D01*
X136312175Y-91480477D01*
X136487204Y-91793014D01*
X136488576Y-91795067D01*
X136488577Y-91795069D01*
X136728185Y-92153667D01*
X136742946Y-92175759D01*
X136780691Y-92223638D01*
X136927813Y-92410261D01*
X137027929Y-92537258D01*
X137029606Y-92539072D01*
X137029611Y-92539078D01*
X137217196Y-92742005D01*
X137340397Y-92875283D01*
X137342196Y-92876946D01*
X137676422Y-93185902D01*
X137678422Y-93187751D01*
X137680365Y-93189283D01*
X137680370Y-93189287D01*
X137793666Y-93278602D01*
X138039921Y-93472734D01*
X138041982Y-93474111D01*
X138041986Y-93474114D01*
X138391454Y-93707621D01*
X138422666Y-93728476D01*
X138608579Y-93832592D01*
X138822147Y-93952196D01*
X138822157Y-93952201D01*
X138824296Y-93953399D01*
X138826537Y-93954432D01*
X139213084Y-94132633D01*
X139242335Y-94146118D01*
X139674206Y-94305444D01*
X139939495Y-94380263D01*
X140114866Y-94429723D01*
X140114871Y-94429724D01*
X140117246Y-94430394D01*
X140568724Y-94520199D01*
X140716423Y-94537680D01*
X141023402Y-94574014D01*
X141023413Y-94574015D01*
X141025856Y-94574304D01*
X141457159Y-94591249D01*
X141463611Y-94591921D01*
X141463632Y-94591684D01*
X141468485Y-94592119D01*
X141473285Y-94592927D01*
X141479716Y-94593005D01*
X141480965Y-94593021D01*
X141480969Y-94593021D01*
X141485824Y-94593080D01*
X141513412Y-94589129D01*
X141531275Y-94587856D01*
X146903000Y-94587856D01*
X146971121Y-94607858D01*
X147017614Y-94661514D01*
X147029000Y-94713856D01*
X147029000Y-101293253D01*
X147008998Y-101361374D01*
X146955342Y-101407867D01*
X146885068Y-101417971D01*
X146820488Y-101388477D01*
X146789994Y-101348981D01*
X146745375Y-101258502D01*
X146741254Y-101251365D01*
X146579395Y-101009125D01*
X146574375Y-101002583D01*
X146559339Y-100985437D01*
X146546102Y-100977041D01*
X146536335Y-100982875D01*
X145132022Y-102387188D01*
X145124408Y-102401132D01*
X145124539Y-102402965D01*
X145128790Y-102409580D01*
X146534582Y-103815372D01*
X146548342Y-103822886D01*
X146557704Y-103816427D01*
X146574375Y-103797417D01*
X146579395Y-103790875D01*
X146741254Y-103548635D01*
X146745375Y-103541498D01*
X146789994Y-103451019D01*
X146838062Y-103398770D01*
X146906748Y-103380803D01*
X146974244Y-103402822D01*
X147019120Y-103457837D01*
X147029000Y-103506747D01*
X147029000Y-107291000D01*
X147008998Y-107359121D01*
X146955342Y-107405614D01*
X146903000Y-107417000D01*
X106296000Y-107417000D01*
X106227879Y-107396998D01*
X106181386Y-107343342D01*
X106170000Y-107291000D01*
X106170000Y-104998342D01*
X113777114Y-104998342D01*
X113783573Y-105007704D01*
X113802583Y-105024375D01*
X113809125Y-105029395D01*
X114051365Y-105191254D01*
X114058502Y-105195375D01*
X114319802Y-105324233D01*
X114327406Y-105327383D01*
X114603293Y-105421034D01*
X114611245Y-105423165D01*
X114896999Y-105480005D01*
X114905157Y-105481079D01*
X115195881Y-105500134D01*
X115204119Y-105500134D01*
X115494843Y-105481079D01*
X115503001Y-105480005D01*
X115788755Y-105423165D01*
X115796707Y-105421034D01*
X116072594Y-105327383D01*
X116080198Y-105324233D01*
X116341498Y-105195375D01*
X116348635Y-105191254D01*
X116590875Y-105029395D01*
X116597417Y-105024375D01*
X116614563Y-105009339D01*
X116621538Y-104998342D01*
X136577114Y-104998342D01*
X136583573Y-105007704D01*
X136602583Y-105024375D01*
X136609125Y-105029395D01*
X136851365Y-105191254D01*
X136858502Y-105195375D01*
X137119802Y-105324233D01*
X137127406Y-105327383D01*
X137403293Y-105421034D01*
X137411245Y-105423165D01*
X137696999Y-105480005D01*
X137705157Y-105481079D01*
X137995881Y-105500134D01*
X138004119Y-105500134D01*
X138294843Y-105481079D01*
X138303001Y-105480005D01*
X138588755Y-105423165D01*
X138596707Y-105421034D01*
X138872594Y-105327383D01*
X138880198Y-105324233D01*
X139141498Y-105195375D01*
X139148635Y-105191254D01*
X139390875Y-105029395D01*
X139397417Y-105024375D01*
X139414563Y-105009339D01*
X139422959Y-104996102D01*
X139417125Y-104986335D01*
X138012812Y-103582022D01*
X137998868Y-103574408D01*
X137997035Y-103574539D01*
X137990420Y-103578790D01*
X136584628Y-104984582D01*
X136577114Y-104998342D01*
X116621538Y-104998342D01*
X116622959Y-104996102D01*
X116617125Y-104986335D01*
X115212812Y-103582022D01*
X115198868Y-103574408D01*
X115197035Y-103574539D01*
X115190420Y-103578790D01*
X113784628Y-104984582D01*
X113777114Y-104998342D01*
X106170000Y-104998342D01*
X106170000Y-104188342D01*
X107017114Y-104188342D01*
X107023573Y-104197704D01*
X107042583Y-104214375D01*
X107049125Y-104219395D01*
X107291365Y-104381254D01*
X107298502Y-104385375D01*
X107559802Y-104514233D01*
X107567406Y-104517383D01*
X107843293Y-104611034D01*
X107851245Y-104613165D01*
X108136999Y-104670005D01*
X108145157Y-104671079D01*
X108435881Y-104690134D01*
X108444119Y-104690134D01*
X108734843Y-104671079D01*
X108743001Y-104670005D01*
X109028755Y-104613165D01*
X109036707Y-104611034D01*
X109312594Y-104517383D01*
X109320198Y-104514233D01*
X109581498Y-104385375D01*
X109588635Y-104381254D01*
X109830875Y-104219395D01*
X109837417Y-104214375D01*
X109854563Y-104199339D01*
X109862959Y-104186102D01*
X109857125Y-104176335D01*
X108452812Y-102772022D01*
X108438868Y-102764408D01*
X108437035Y-102764539D01*
X108430420Y-102768790D01*
X107024628Y-104174582D01*
X107017114Y-104188342D01*
X106170000Y-104188342D01*
X106170000Y-103504719D01*
X106190002Y-103436598D01*
X106243658Y-103390105D01*
X106313932Y-103380001D01*
X106378512Y-103409495D01*
X106409006Y-103448991D01*
X106454625Y-103541498D01*
X106458746Y-103548635D01*
X106620605Y-103790875D01*
X106625625Y-103797417D01*
X106640661Y-103814563D01*
X106653898Y-103822959D01*
X106663665Y-103817125D01*
X108067978Y-102412812D01*
X108074356Y-102401132D01*
X108804408Y-102401132D01*
X108804539Y-102402965D01*
X108808790Y-102409580D01*
X110214582Y-103815372D01*
X110228342Y-103822886D01*
X110237704Y-103816427D01*
X110254375Y-103797417D01*
X110259395Y-103790875D01*
X110421254Y-103548635D01*
X110425375Y-103541498D01*
X110554233Y-103280198D01*
X110557383Y-103272594D01*
X110577233Y-103214119D01*
X112909866Y-103214119D01*
X112928921Y-103504843D01*
X112929995Y-103513001D01*
X112986835Y-103798755D01*
X112988966Y-103806707D01*
X113082617Y-104082594D01*
X113085767Y-104090198D01*
X113214625Y-104351498D01*
X113218746Y-104358635D01*
X113380605Y-104600875D01*
X113385625Y-104607417D01*
X113400661Y-104624563D01*
X113413898Y-104632959D01*
X113423665Y-104627125D01*
X114827978Y-103222812D01*
X114834356Y-103211132D01*
X115564408Y-103211132D01*
X115564539Y-103212965D01*
X115568790Y-103219580D01*
X116974582Y-104625372D01*
X116988342Y-104632886D01*
X116997704Y-104626427D01*
X117014375Y-104607417D01*
X117019395Y-104600875D01*
X117181254Y-104358635D01*
X117185375Y-104351498D01*
X117265834Y-104188342D01*
X120537114Y-104188342D01*
X120543573Y-104197704D01*
X120562583Y-104214375D01*
X120569125Y-104219395D01*
X120811365Y-104381254D01*
X120818502Y-104385375D01*
X121079802Y-104514233D01*
X121087406Y-104517383D01*
X121363293Y-104611034D01*
X121371245Y-104613165D01*
X121656999Y-104670005D01*
X121665157Y-104671079D01*
X121955881Y-104690134D01*
X121964119Y-104690134D01*
X122254843Y-104671079D01*
X122263001Y-104670005D01*
X122548755Y-104613165D01*
X122556707Y-104611034D01*
X122832594Y-104517383D01*
X122840198Y-104514233D01*
X123101498Y-104385375D01*
X123108635Y-104381254D01*
X123350875Y-104219395D01*
X123357417Y-104214375D01*
X123374563Y-104199339D01*
X123381538Y-104188342D01*
X129817114Y-104188342D01*
X129823573Y-104197704D01*
X129842583Y-104214375D01*
X129849125Y-104219395D01*
X130091365Y-104381254D01*
X130098502Y-104385375D01*
X130359802Y-104514233D01*
X130367406Y-104517383D01*
X130643293Y-104611034D01*
X130651245Y-104613165D01*
X130936999Y-104670005D01*
X130945157Y-104671079D01*
X131235881Y-104690134D01*
X131244119Y-104690134D01*
X131534843Y-104671079D01*
X131543001Y-104670005D01*
X131828755Y-104613165D01*
X131836707Y-104611034D01*
X132112594Y-104517383D01*
X132120198Y-104514233D01*
X132381498Y-104385375D01*
X132388635Y-104381254D01*
X132630875Y-104219395D01*
X132637417Y-104214375D01*
X132654563Y-104199339D01*
X132662959Y-104186102D01*
X132657125Y-104176335D01*
X131252812Y-102772022D01*
X131238868Y-102764408D01*
X131237035Y-102764539D01*
X131230420Y-102768790D01*
X129824628Y-104174582D01*
X129817114Y-104188342D01*
X123381538Y-104188342D01*
X123382959Y-104186102D01*
X123377125Y-104176335D01*
X121972812Y-102772022D01*
X121958868Y-102764408D01*
X121957035Y-102764539D01*
X121950420Y-102768790D01*
X120544628Y-104174582D01*
X120537114Y-104188342D01*
X117265834Y-104188342D01*
X117314233Y-104090198D01*
X117317383Y-104082594D01*
X117411034Y-103806707D01*
X117413165Y-103798755D01*
X117470005Y-103513001D01*
X117471079Y-103504843D01*
X117490134Y-103214119D01*
X117490134Y-103205881D01*
X117471079Y-102915157D01*
X117470005Y-102906999D01*
X117413165Y-102621245D01*
X117411034Y-102613293D01*
X117340029Y-102404119D01*
X119669866Y-102404119D01*
X119688921Y-102694843D01*
X119689995Y-102703001D01*
X119746835Y-102988755D01*
X119748966Y-102996707D01*
X119842617Y-103272594D01*
X119845767Y-103280198D01*
X119974625Y-103541498D01*
X119978746Y-103548635D01*
X120140605Y-103790875D01*
X120145625Y-103797417D01*
X120160661Y-103814563D01*
X120173898Y-103822959D01*
X120183665Y-103817125D01*
X121587978Y-102412812D01*
X121594356Y-102401132D01*
X122324408Y-102401132D01*
X122324539Y-102402965D01*
X122328790Y-102409580D01*
X123734582Y-103815372D01*
X123748342Y-103822886D01*
X123757704Y-103816427D01*
X123774375Y-103797417D01*
X123779395Y-103790875D01*
X123941254Y-103548635D01*
X123945375Y-103541498D01*
X124074233Y-103280198D01*
X124077383Y-103272594D01*
X124171034Y-102996707D01*
X124173165Y-102988755D01*
X124230005Y-102703001D01*
X124231079Y-102694843D01*
X124250134Y-102404119D01*
X128949866Y-102404119D01*
X128968921Y-102694843D01*
X128969995Y-102703001D01*
X129026835Y-102988755D01*
X129028966Y-102996707D01*
X129122617Y-103272594D01*
X129125767Y-103280198D01*
X129254625Y-103541498D01*
X129258746Y-103548635D01*
X129420605Y-103790875D01*
X129425625Y-103797417D01*
X129440661Y-103814563D01*
X129453898Y-103822959D01*
X129463665Y-103817125D01*
X130867978Y-102412812D01*
X130874356Y-102401132D01*
X131604408Y-102401132D01*
X131604539Y-102402965D01*
X131608790Y-102409580D01*
X133014582Y-103815372D01*
X133028342Y-103822886D01*
X133037704Y-103816427D01*
X133054375Y-103797417D01*
X133059395Y-103790875D01*
X133221254Y-103548635D01*
X133225375Y-103541498D01*
X133354233Y-103280198D01*
X133357383Y-103272594D01*
X133377233Y-103214119D01*
X135709866Y-103214119D01*
X135728921Y-103504843D01*
X135729995Y-103513001D01*
X135786835Y-103798755D01*
X135788966Y-103806707D01*
X135882617Y-104082594D01*
X135885767Y-104090198D01*
X136014625Y-104351498D01*
X136018746Y-104358635D01*
X136180605Y-104600875D01*
X136185625Y-104607417D01*
X136200661Y-104624563D01*
X136213898Y-104632959D01*
X136223665Y-104627125D01*
X137627978Y-103222812D01*
X137634356Y-103211132D01*
X138364408Y-103211132D01*
X138364539Y-103212965D01*
X138368790Y-103219580D01*
X139774582Y-104625372D01*
X139788342Y-104632886D01*
X139797704Y-104626427D01*
X139814375Y-104607417D01*
X139819395Y-104600875D01*
X139981254Y-104358635D01*
X139985375Y-104351498D01*
X140065834Y-104188342D01*
X143337114Y-104188342D01*
X143343573Y-104197704D01*
X143362583Y-104214375D01*
X143369125Y-104219395D01*
X143611365Y-104381254D01*
X143618502Y-104385375D01*
X143879802Y-104514233D01*
X143887406Y-104517383D01*
X144163293Y-104611034D01*
X144171245Y-104613165D01*
X144456999Y-104670005D01*
X144465157Y-104671079D01*
X144755881Y-104690134D01*
X144764119Y-104690134D01*
X145054843Y-104671079D01*
X145063001Y-104670005D01*
X145348755Y-104613165D01*
X145356707Y-104611034D01*
X145632594Y-104517383D01*
X145640198Y-104514233D01*
X145901498Y-104385375D01*
X145908635Y-104381254D01*
X146150875Y-104219395D01*
X146157417Y-104214375D01*
X146174563Y-104199339D01*
X146182959Y-104186102D01*
X146177125Y-104176335D01*
X144772812Y-102772022D01*
X144758868Y-102764408D01*
X144757035Y-102764539D01*
X144750420Y-102768790D01*
X143344628Y-104174582D01*
X143337114Y-104188342D01*
X140065834Y-104188342D01*
X140114233Y-104090198D01*
X140117383Y-104082594D01*
X140211034Y-103806707D01*
X140213165Y-103798755D01*
X140270005Y-103513001D01*
X140271079Y-103504843D01*
X140290134Y-103214119D01*
X140290134Y-103205881D01*
X140271079Y-102915157D01*
X140270005Y-102906999D01*
X140213165Y-102621245D01*
X140211034Y-102613293D01*
X140140029Y-102404119D01*
X142469866Y-102404119D01*
X142488921Y-102694843D01*
X142489995Y-102703001D01*
X142546835Y-102988755D01*
X142548966Y-102996707D01*
X142642617Y-103272594D01*
X142645767Y-103280198D01*
X142774625Y-103541498D01*
X142778746Y-103548635D01*
X142940605Y-103790875D01*
X142945625Y-103797417D01*
X142960661Y-103814563D01*
X142973898Y-103822959D01*
X142983665Y-103817125D01*
X144387978Y-102412812D01*
X144395592Y-102398868D01*
X144395461Y-102397035D01*
X144391210Y-102390420D01*
X142985418Y-100984628D01*
X142971658Y-100977114D01*
X142962296Y-100983573D01*
X142945625Y-101002583D01*
X142940605Y-101009125D01*
X142778746Y-101251365D01*
X142774625Y-101258502D01*
X142645767Y-101519802D01*
X142642617Y-101527406D01*
X142548966Y-101803293D01*
X142546835Y-101811245D01*
X142489995Y-102096999D01*
X142488921Y-102105157D01*
X142469866Y-102395881D01*
X142469866Y-102404119D01*
X140140029Y-102404119D01*
X140117383Y-102337406D01*
X140114233Y-102329802D01*
X139985375Y-102068502D01*
X139981254Y-102061365D01*
X139819395Y-101819125D01*
X139814375Y-101812583D01*
X139799339Y-101795437D01*
X139786102Y-101787041D01*
X139776335Y-101792875D01*
X138372022Y-103197188D01*
X138364408Y-103211132D01*
X137634356Y-103211132D01*
X137635592Y-103208868D01*
X137635461Y-103207035D01*
X137631210Y-103200420D01*
X136225418Y-101794628D01*
X136211658Y-101787114D01*
X136202296Y-101793573D01*
X136185625Y-101812583D01*
X136180605Y-101819125D01*
X136018746Y-102061365D01*
X136014625Y-102068502D01*
X135885767Y-102329802D01*
X135882617Y-102337406D01*
X135788966Y-102613293D01*
X135786835Y-102621245D01*
X135729995Y-102906999D01*
X135728921Y-102915157D01*
X135709866Y-103205881D01*
X135709866Y-103214119D01*
X133377233Y-103214119D01*
X133451034Y-102996707D01*
X133453165Y-102988755D01*
X133510005Y-102703001D01*
X133511079Y-102694843D01*
X133530134Y-102404119D01*
X133530134Y-102395881D01*
X133511079Y-102105157D01*
X133510005Y-102096999D01*
X133453165Y-101811245D01*
X133451034Y-101803293D01*
X133357383Y-101527406D01*
X133354233Y-101519802D01*
X133306939Y-101423898D01*
X136577041Y-101423898D01*
X136582875Y-101433665D01*
X137987188Y-102837978D01*
X138001132Y-102845592D01*
X138002965Y-102845461D01*
X138009580Y-102841210D01*
X139415372Y-101435418D01*
X139422886Y-101421658D01*
X139416427Y-101412296D01*
X139397417Y-101395625D01*
X139390875Y-101390605D01*
X139148635Y-101228746D01*
X139141498Y-101224625D01*
X138880198Y-101095767D01*
X138872594Y-101092617D01*
X138596707Y-100998966D01*
X138588755Y-100996835D01*
X138303001Y-100939995D01*
X138294843Y-100938921D01*
X138004119Y-100919866D01*
X137995881Y-100919866D01*
X137705157Y-100938921D01*
X137696999Y-100939995D01*
X137411245Y-100996835D01*
X137403293Y-100998966D01*
X137127406Y-101092617D01*
X137119802Y-101095767D01*
X136858502Y-101224625D01*
X136851365Y-101228746D01*
X136609125Y-101390605D01*
X136602583Y-101395625D01*
X136585437Y-101410661D01*
X136577041Y-101423898D01*
X133306939Y-101423898D01*
X133225375Y-101258502D01*
X133221254Y-101251365D01*
X133059395Y-101009125D01*
X133054375Y-101002583D01*
X133039339Y-100985437D01*
X133026102Y-100977041D01*
X133016335Y-100982875D01*
X131612022Y-102387188D01*
X131604408Y-102401132D01*
X130874356Y-102401132D01*
X130875592Y-102398868D01*
X130875461Y-102397035D01*
X130871210Y-102390420D01*
X129465418Y-100984628D01*
X129451658Y-100977114D01*
X129442296Y-100983573D01*
X129425625Y-101002583D01*
X129420605Y-101009125D01*
X129258746Y-101251365D01*
X129254625Y-101258502D01*
X129125767Y-101519802D01*
X129122617Y-101527406D01*
X129028966Y-101803293D01*
X129026835Y-101811245D01*
X128969995Y-102096999D01*
X128968921Y-102105157D01*
X128949866Y-102395881D01*
X128949866Y-102404119D01*
X124250134Y-102404119D01*
X124250134Y-102395881D01*
X124231079Y-102105157D01*
X124230005Y-102096999D01*
X124173165Y-101811245D01*
X124171034Y-101803293D01*
X124077383Y-101527406D01*
X124074233Y-101519802D01*
X123945375Y-101258502D01*
X123941254Y-101251365D01*
X123779395Y-101009125D01*
X123774375Y-101002583D01*
X123759339Y-100985437D01*
X123746102Y-100977041D01*
X123736335Y-100982875D01*
X122332022Y-102387188D01*
X122324408Y-102401132D01*
X121594356Y-102401132D01*
X121595592Y-102398868D01*
X121595461Y-102397035D01*
X121591210Y-102390420D01*
X120185418Y-100984628D01*
X120171658Y-100977114D01*
X120162296Y-100983573D01*
X120145625Y-101002583D01*
X120140605Y-101009125D01*
X119978746Y-101251365D01*
X119974625Y-101258502D01*
X119845767Y-101519802D01*
X119842617Y-101527406D01*
X119748966Y-101803293D01*
X119746835Y-101811245D01*
X119689995Y-102096999D01*
X119688921Y-102105157D01*
X119669866Y-102395881D01*
X119669866Y-102404119D01*
X117340029Y-102404119D01*
X117317383Y-102337406D01*
X117314233Y-102329802D01*
X117185375Y-102068502D01*
X117181254Y-102061365D01*
X117019395Y-101819125D01*
X117014375Y-101812583D01*
X116999339Y-101795437D01*
X116986102Y-101787041D01*
X116976335Y-101792875D01*
X115572022Y-103197188D01*
X115564408Y-103211132D01*
X114834356Y-103211132D01*
X114835592Y-103208868D01*
X114835461Y-103207035D01*
X114831210Y-103200420D01*
X113425418Y-101794628D01*
X113411658Y-101787114D01*
X113402296Y-101793573D01*
X113385625Y-101812583D01*
X113380605Y-101819125D01*
X113218746Y-102061365D01*
X113214625Y-102068502D01*
X113085767Y-102329802D01*
X113082617Y-102337406D01*
X112988966Y-102613293D01*
X112986835Y-102621245D01*
X112929995Y-102906999D01*
X112928921Y-102915157D01*
X112909866Y-103205881D01*
X112909866Y-103214119D01*
X110577233Y-103214119D01*
X110651034Y-102996707D01*
X110653165Y-102988755D01*
X110710005Y-102703001D01*
X110711079Y-102694843D01*
X110730134Y-102404119D01*
X110730134Y-102395881D01*
X110711079Y-102105157D01*
X110710005Y-102096999D01*
X110653165Y-101811245D01*
X110651034Y-101803293D01*
X110557383Y-101527406D01*
X110554233Y-101519802D01*
X110506939Y-101423898D01*
X113777041Y-101423898D01*
X113782875Y-101433665D01*
X115187188Y-102837978D01*
X115201132Y-102845592D01*
X115202965Y-102845461D01*
X115209580Y-102841210D01*
X116615372Y-101435418D01*
X116622886Y-101421658D01*
X116616427Y-101412296D01*
X116597417Y-101395625D01*
X116590875Y-101390605D01*
X116348635Y-101228746D01*
X116341498Y-101224625D01*
X116080198Y-101095767D01*
X116072594Y-101092617D01*
X115796707Y-100998966D01*
X115788755Y-100996835D01*
X115503001Y-100939995D01*
X115494843Y-100938921D01*
X115204119Y-100919866D01*
X115195881Y-100919866D01*
X114905157Y-100938921D01*
X114896999Y-100939995D01*
X114611245Y-100996835D01*
X114603293Y-100998966D01*
X114327406Y-101092617D01*
X114319802Y-101095767D01*
X114058502Y-101224625D01*
X114051365Y-101228746D01*
X113809125Y-101390605D01*
X113802583Y-101395625D01*
X113785437Y-101410661D01*
X113777041Y-101423898D01*
X110506939Y-101423898D01*
X110425375Y-101258502D01*
X110421254Y-101251365D01*
X110259395Y-101009125D01*
X110254375Y-101002583D01*
X110239339Y-100985437D01*
X110226102Y-100977041D01*
X110216335Y-100982875D01*
X108812022Y-102387188D01*
X108804408Y-102401132D01*
X108074356Y-102401132D01*
X108075592Y-102398868D01*
X108075461Y-102397035D01*
X108071210Y-102390420D01*
X106665418Y-100984628D01*
X106651658Y-100977114D01*
X106642296Y-100983573D01*
X106625625Y-101002583D01*
X106620605Y-101009125D01*
X106458746Y-101251365D01*
X106454625Y-101258502D01*
X106409006Y-101351009D01*
X106360938Y-101403258D01*
X106292252Y-101421225D01*
X106224756Y-101399206D01*
X106179880Y-101344191D01*
X106170000Y-101295281D01*
X106170000Y-100613898D01*
X107017041Y-100613898D01*
X107022875Y-100623665D01*
X108427188Y-102027978D01*
X108441132Y-102035592D01*
X108442965Y-102035461D01*
X108449580Y-102031210D01*
X109855372Y-100625418D01*
X109862886Y-100611658D01*
X109856427Y-100602296D01*
X109837417Y-100585625D01*
X109830875Y-100580605D01*
X109640488Y-100453393D01*
X111161161Y-100453393D01*
X111170456Y-100465407D01*
X111211833Y-100494379D01*
X111221319Y-100499857D01*
X111411568Y-100588571D01*
X111421860Y-100592317D01*
X111624619Y-100646646D01*
X111635411Y-100648549D01*
X111844525Y-100666844D01*
X111855475Y-100666844D01*
X112064589Y-100648549D01*
X112075381Y-100646646D01*
X112278140Y-100592317D01*
X112288432Y-100588571D01*
X112478681Y-100499857D01*
X112488167Y-100494379D01*
X112530379Y-100464823D01*
X112538755Y-100454344D01*
X112531689Y-100440900D01*
X111862811Y-99772021D01*
X111848868Y-99764408D01*
X111847034Y-99764539D01*
X111840420Y-99768790D01*
X111167588Y-100441623D01*
X111161161Y-100453393D01*
X109640488Y-100453393D01*
X109588635Y-100418746D01*
X109581498Y-100414625D01*
X109320198Y-100285767D01*
X109312594Y-100282617D01*
X109036707Y-100188966D01*
X109028755Y-100186835D01*
X108743001Y-100129995D01*
X108734843Y-100128921D01*
X108444119Y-100109866D01*
X108435881Y-100109866D01*
X108145157Y-100128921D01*
X108136999Y-100129995D01*
X107851245Y-100186835D01*
X107843293Y-100188966D01*
X107567406Y-100282617D01*
X107559802Y-100285767D01*
X107298502Y-100414625D01*
X107291365Y-100418746D01*
X107049125Y-100580605D01*
X107042583Y-100585625D01*
X107025437Y-100600661D01*
X107017041Y-100613898D01*
X106170000Y-100613898D01*
X106170000Y-99405475D01*
X110583156Y-99405475D01*
X110601451Y-99614589D01*
X110603354Y-99625381D01*
X110657683Y-99828140D01*
X110661429Y-99838432D01*
X110750142Y-100028677D01*
X110755622Y-100038168D01*
X110785178Y-100080380D01*
X110795655Y-100088755D01*
X110809101Y-100081688D01*
X111477979Y-99412811D01*
X111485592Y-99398868D01*
X111485461Y-99397034D01*
X111481210Y-99390420D01*
X110808377Y-98717588D01*
X110796608Y-98711161D01*
X110784592Y-98720458D01*
X110755622Y-98761832D01*
X110750142Y-98771323D01*
X110661429Y-98961568D01*
X110657683Y-98971860D01*
X110603354Y-99174619D01*
X110601451Y-99185411D01*
X110583156Y-99394525D01*
X110583156Y-99405475D01*
X106170000Y-99405475D01*
X106170000Y-94713856D01*
X106190002Y-94645735D01*
X106243658Y-94599242D01*
X106296000Y-94587856D01*
X111660769Y-94587856D01*
X111681670Y-94589602D01*
X111689118Y-94590855D01*
X111700742Y-94592810D01*
X111706962Y-94592886D01*
X111708416Y-94592904D01*
X111708421Y-94592904D01*
X111713281Y-94592963D01*
X111718097Y-94592273D01*
X111722954Y-94591957D01*
X111722961Y-94592064D01*
X111726540Y-94591738D01*
X112173240Y-94574178D01*
X112175704Y-94573886D01*
X112175708Y-94573886D01*
X112319328Y-94556885D01*
X112630364Y-94520066D01*
X112661917Y-94513789D01*
X112732629Y-94520115D01*
X112788698Y-94563668D01*
X112812319Y-94630619D01*
X112795994Y-94699714D01*
X112775595Y-94726462D01*
X111893258Y-95608799D01*
X111830946Y-95642825D01*
X111815145Y-95645225D01*
X111728372Y-95652817D01*
X111629845Y-95661437D01*
X111624532Y-95662861D01*
X111624530Y-95662861D01*
X111421689Y-95717212D01*
X111421687Y-95717213D01*
X111416379Y-95718635D01*
X111411398Y-95720958D01*
X111411397Y-95720958D01*
X111221069Y-95809709D01*
X111221066Y-95809711D01*
X111216088Y-95812032D01*
X111035058Y-95938790D01*
X110878790Y-96095058D01*
X110752032Y-96276088D01*
X110658635Y-96476379D01*
X110601437Y-96689845D01*
X110582176Y-96910000D01*
X110601437Y-97130155D01*
X110602861Y-97135468D01*
X110602861Y-97135470D01*
X110649132Y-97308154D01*
X110658635Y-97343621D01*
X110660958Y-97348602D01*
X110660958Y-97348603D01*
X110733221Y-97503571D01*
X110752032Y-97543912D01*
X110878790Y-97724942D01*
X111035058Y-97881210D01*
X111216088Y-98007968D01*
X111221069Y-98010291D01*
X111221073Y-98010293D01*
X111287097Y-98041080D01*
X111340383Y-98087997D01*
X111359844Y-98156274D01*
X111339303Y-98224234D01*
X111287099Y-98269469D01*
X111221328Y-98300139D01*
X111211832Y-98305622D01*
X111169620Y-98335178D01*
X111161245Y-98345655D01*
X111168312Y-98359101D01*
X111837189Y-99027979D01*
X111851132Y-99035592D01*
X111852966Y-99035461D01*
X111859580Y-99031210D01*
X112532412Y-98358377D01*
X112538839Y-98346607D01*
X112529544Y-98334593D01*
X112488167Y-98305621D01*
X112478681Y-98300143D01*
X112412902Y-98269470D01*
X112359617Y-98222553D01*
X112340156Y-98154275D01*
X112360698Y-98086315D01*
X112412903Y-98041080D01*
X112478927Y-98010293D01*
X112478931Y-98010291D01*
X112483912Y-98007968D01*
X112664942Y-97881210D01*
X112821210Y-97724942D01*
X112947968Y-97543912D01*
X112966780Y-97503571D01*
X113005805Y-97419880D01*
X113052722Y-97366595D01*
X113121000Y-97347134D01*
X113188959Y-97367676D01*
X113234195Y-97419880D01*
X113273221Y-97503571D01*
X113292032Y-97543912D01*
X113418790Y-97724942D01*
X113575058Y-97881210D01*
X113661833Y-97941970D01*
X113706162Y-97997427D01*
X113713471Y-98068046D01*
X113681441Y-98131406D01*
X113622174Y-98166890D01*
X113471689Y-98207212D01*
X113471687Y-98207213D01*
X113466379Y-98208635D01*
X113461398Y-98210958D01*
X113461397Y-98210958D01*
X113271069Y-98299709D01*
X113271066Y-98299711D01*
X113266088Y-98302032D01*
X113085058Y-98428790D01*
X112928790Y-98585058D01*
X112802032Y-98766088D01*
X112799705Y-98771078D01*
X112799704Y-98771080D01*
X112775520Y-98822944D01*
X112750420Y-98858791D01*
X112222021Y-99387189D01*
X112214408Y-99401132D01*
X112214539Y-99402966D01*
X112218790Y-99409580D01*
X112750420Y-99941209D01*
X112775519Y-99977055D01*
X112802032Y-100033912D01*
X112928790Y-100214942D01*
X113085058Y-100371210D01*
X113266088Y-100497968D01*
X113271066Y-100500289D01*
X113271069Y-100500291D01*
X113460387Y-100588571D01*
X113466379Y-100591365D01*
X113471687Y-100592787D01*
X113471689Y-100592788D01*
X113674530Y-100647139D01*
X113674532Y-100647139D01*
X113679845Y-100648563D01*
X113900000Y-100667824D01*
X114120155Y-100648563D01*
X114125468Y-100647139D01*
X114125470Y-100647139D01*
X114328311Y-100592788D01*
X114328313Y-100592787D01*
X114333621Y-100591365D01*
X114339613Y-100588571D01*
X114528931Y-100500291D01*
X114528934Y-100500289D01*
X114533912Y-100497968D01*
X114714942Y-100371210D01*
X114871210Y-100214942D01*
X114997968Y-100033912D01*
X115085805Y-99845543D01*
X115132722Y-99792259D01*
X115200999Y-99772798D01*
X115268959Y-99793340D01*
X115314195Y-99845543D01*
X115402032Y-100033912D01*
X115528790Y-100214942D01*
X115685058Y-100371210D01*
X115866088Y-100497968D01*
X115871066Y-100500289D01*
X115871069Y-100500291D01*
X116060387Y-100588571D01*
X116066379Y-100591365D01*
X116071687Y-100592787D01*
X116071689Y-100592788D01*
X116274530Y-100647139D01*
X116274532Y-100647139D01*
X116279845Y-100648563D01*
X116500000Y-100667824D01*
X116720155Y-100648563D01*
X116725468Y-100647139D01*
X116725470Y-100647139D01*
X116928311Y-100592788D01*
X116928313Y-100592787D01*
X116933621Y-100591365D01*
X116939613Y-100588571D01*
X117128931Y-100500291D01*
X117128934Y-100500289D01*
X117133912Y-100497968D01*
X117314942Y-100371210D01*
X117435905Y-100250247D01*
X117498217Y-100216221D01*
X117569032Y-100221286D01*
X117614095Y-100250247D01*
X117735058Y-100371210D01*
X117916088Y-100497968D01*
X117921066Y-100500289D01*
X117921069Y-100500291D01*
X118110387Y-100588571D01*
X118116379Y-100591365D01*
X118121687Y-100592787D01*
X118121689Y-100592788D01*
X118324530Y-100647139D01*
X118324532Y-100647139D01*
X118329845Y-100648563D01*
X118550000Y-100667824D01*
X118770155Y-100648563D01*
X118775468Y-100647139D01*
X118775470Y-100647139D01*
X118899527Y-100613898D01*
X120537041Y-100613898D01*
X120542875Y-100623665D01*
X121947188Y-102027978D01*
X121961132Y-102035592D01*
X121962965Y-102035461D01*
X121969580Y-102031210D01*
X123375372Y-100625418D01*
X123381663Y-100613898D01*
X129817041Y-100613898D01*
X129822875Y-100623665D01*
X131227188Y-102027978D01*
X131241132Y-102035592D01*
X131242965Y-102035461D01*
X131249580Y-102031210D01*
X132655372Y-100625418D01*
X132662886Y-100611658D01*
X132656427Y-100602296D01*
X132637417Y-100585625D01*
X132630875Y-100580605D01*
X132440488Y-100453393D01*
X133961161Y-100453393D01*
X133970456Y-100465407D01*
X134011833Y-100494379D01*
X134021319Y-100499857D01*
X134211568Y-100588571D01*
X134221860Y-100592317D01*
X134424619Y-100646646D01*
X134435411Y-100648549D01*
X134644525Y-100666844D01*
X134655475Y-100666844D01*
X134864589Y-100648549D01*
X134875381Y-100646646D01*
X135078140Y-100592317D01*
X135088432Y-100588571D01*
X135278681Y-100499857D01*
X135288167Y-100494379D01*
X135330379Y-100464823D01*
X135338755Y-100454344D01*
X135331689Y-100440900D01*
X134662811Y-99772021D01*
X134648868Y-99764408D01*
X134647034Y-99764539D01*
X134640420Y-99768790D01*
X133967588Y-100441623D01*
X133961161Y-100453393D01*
X132440488Y-100453393D01*
X132388635Y-100418746D01*
X132381498Y-100414625D01*
X132120198Y-100285767D01*
X132112594Y-100282617D01*
X131836707Y-100188966D01*
X131828755Y-100186835D01*
X131543001Y-100129995D01*
X131534843Y-100128921D01*
X131244119Y-100109866D01*
X131235881Y-100109866D01*
X130945157Y-100128921D01*
X130936999Y-100129995D01*
X130651245Y-100186835D01*
X130643293Y-100188966D01*
X130367406Y-100282617D01*
X130359802Y-100285767D01*
X130098502Y-100414625D01*
X130091365Y-100418746D01*
X129849125Y-100580605D01*
X129842583Y-100585625D01*
X129825437Y-100600661D01*
X129817041Y-100613898D01*
X123381663Y-100613898D01*
X123382886Y-100611658D01*
X123376427Y-100602296D01*
X123357417Y-100585625D01*
X123350875Y-100580605D01*
X123108635Y-100418746D01*
X123101498Y-100414625D01*
X122840198Y-100285767D01*
X122832594Y-100282617D01*
X122556707Y-100188966D01*
X122548755Y-100186835D01*
X122263001Y-100129995D01*
X122254843Y-100128921D01*
X121964119Y-100109866D01*
X121955881Y-100109866D01*
X121665157Y-100128921D01*
X121656999Y-100129995D01*
X121371245Y-100186835D01*
X121363293Y-100188966D01*
X121087406Y-100282617D01*
X121079802Y-100285767D01*
X120818502Y-100414625D01*
X120811365Y-100418746D01*
X120569125Y-100580605D01*
X120562583Y-100585625D01*
X120545437Y-100600661D01*
X120537041Y-100613898D01*
X118899527Y-100613898D01*
X118978311Y-100592788D01*
X118978313Y-100592787D01*
X118983621Y-100591365D01*
X118989613Y-100588571D01*
X119178931Y-100500291D01*
X119178934Y-100500289D01*
X119183912Y-100497968D01*
X119364942Y-100371210D01*
X119521210Y-100214942D01*
X119647968Y-100033912D01*
X119674481Y-99977056D01*
X119739042Y-99838603D01*
X119739042Y-99838602D01*
X119741365Y-99833621D01*
X119757663Y-99772798D01*
X119797139Y-99625470D01*
X119797139Y-99625468D01*
X119798563Y-99620155D01*
X119817345Y-99405475D01*
X133383156Y-99405475D01*
X133401451Y-99614589D01*
X133403354Y-99625381D01*
X133457683Y-99828140D01*
X133461429Y-99838432D01*
X133550142Y-100028677D01*
X133555622Y-100038168D01*
X133585178Y-100080380D01*
X133595655Y-100088755D01*
X133609101Y-100081688D01*
X134277979Y-99412811D01*
X134285592Y-99398868D01*
X134285461Y-99397034D01*
X134281210Y-99390420D01*
X133608377Y-98717588D01*
X133596608Y-98711161D01*
X133584592Y-98720458D01*
X133555622Y-98761832D01*
X133550142Y-98771323D01*
X133461429Y-98961568D01*
X133457683Y-98971860D01*
X133403354Y-99174619D01*
X133401451Y-99185411D01*
X133383156Y-99394525D01*
X133383156Y-99405475D01*
X119817345Y-99405475D01*
X119817824Y-99400000D01*
X119798563Y-99179845D01*
X119759911Y-99035592D01*
X119742788Y-98971689D01*
X119742787Y-98971687D01*
X119741365Y-98966379D01*
X119691196Y-98858791D01*
X119650291Y-98771069D01*
X119650289Y-98771066D01*
X119647968Y-98766088D01*
X119521210Y-98585058D01*
X119364942Y-98428790D01*
X119183912Y-98302032D01*
X119178934Y-98299711D01*
X119178931Y-98299709D01*
X119113493Y-98269195D01*
X119060208Y-98222278D01*
X119040747Y-98154000D01*
X119061289Y-98086040D01*
X119113493Y-98040805D01*
X119178931Y-98010291D01*
X119178934Y-98010289D01*
X119183912Y-98007968D01*
X119364942Y-97881210D01*
X119521210Y-97724942D01*
X119647968Y-97543912D01*
X119666780Y-97503571D01*
X119739042Y-97348603D01*
X119739042Y-97348602D01*
X119741365Y-97343621D01*
X119750869Y-97308154D01*
X119797139Y-97135470D01*
X119797139Y-97135468D01*
X119798563Y-97130155D01*
X119817824Y-96910000D01*
X119798563Y-96689845D01*
X119741365Y-96476379D01*
X119647968Y-96276088D01*
X119521210Y-96095058D01*
X119364942Y-95938790D01*
X119183912Y-95812032D01*
X119178934Y-95809711D01*
X119178931Y-95809709D01*
X118988603Y-95720958D01*
X118988602Y-95720958D01*
X118983621Y-95718635D01*
X118978312Y-95717212D01*
X118973137Y-95715329D01*
X118973968Y-95713045D01*
X118922135Y-95681425D01*
X118891138Y-95617553D01*
X118899593Y-95547062D01*
X118944816Y-95492332D01*
X118985909Y-95474860D01*
X118985956Y-95474855D01*
X119049581Y-95454182D01*
X119055906Y-95452309D01*
X119070102Y-95448505D01*
X119120524Y-95434994D01*
X119132616Y-95428833D01*
X119150875Y-95421270D01*
X119163785Y-95417075D01*
X119215975Y-95386943D01*
X119221724Y-95383624D01*
X119227520Y-95380477D01*
X119287125Y-95350107D01*
X119297670Y-95341568D01*
X119313955Y-95330375D01*
X119320002Y-95326884D01*
X119320005Y-95326881D01*
X119325715Y-95323585D01*
X119330615Y-95319173D01*
X119330619Y-95319170D01*
X119375425Y-95278825D01*
X119380446Y-95274537D01*
X119393441Y-95264014D01*
X119396006Y-95261937D01*
X119410153Y-95247790D01*
X119414937Y-95243249D01*
X119459766Y-95202885D01*
X119459767Y-95202883D01*
X119464669Y-95198470D01*
X119472652Y-95187482D01*
X119485489Y-95172454D01*
X119552587Y-95105356D01*
X123588389Y-95105356D01*
X123588484Y-95108986D01*
X123588484Y-95108988D01*
X123589229Y-95137430D01*
X123596605Y-95419116D01*
X123597469Y-95452130D01*
X123597980Y-95455718D01*
X123597980Y-95455722D01*
X123620578Y-95614501D01*
X123646347Y-95795561D01*
X123734374Y-96131098D01*
X123860382Y-96454295D01*
X123930253Y-96586258D01*
X123995547Y-96709575D01*
X124022704Y-96760866D01*
X124024756Y-96763851D01*
X124024761Y-96763860D01*
X124217129Y-97043757D01*
X124217135Y-97043764D01*
X124219186Y-97046749D01*
X124287165Y-97124675D01*
X124409673Y-97265108D01*
X124447224Y-97308154D01*
X124703796Y-97541617D01*
X124706754Y-97543742D01*
X124706757Y-97543745D01*
X124713259Y-97548417D01*
X124985501Y-97744043D01*
X125288606Y-97912749D01*
X125609093Y-98045499D01*
X125612587Y-98046494D01*
X125612589Y-98046495D01*
X125939212Y-98139536D01*
X125939217Y-98139537D01*
X125942713Y-98140533D01*
X126170436Y-98177824D01*
X126281465Y-98196006D01*
X126281469Y-98196006D01*
X126285045Y-98196592D01*
X126288671Y-98196763D01*
X126627926Y-98212762D01*
X126627927Y-98212762D01*
X126631553Y-98212933D01*
X126640745Y-98212306D01*
X126974010Y-98189587D01*
X126974018Y-98189586D01*
X126977641Y-98189339D01*
X126981217Y-98188676D01*
X126981219Y-98188676D01*
X127315160Y-98126784D01*
X127315164Y-98126783D01*
X127318725Y-98126123D01*
X127650282Y-98024122D01*
X127681786Y-98010293D01*
X127900838Y-97914136D01*
X127967918Y-97884690D01*
X128267423Y-97709673D01*
X128544827Y-97501392D01*
X128630724Y-97419880D01*
X128793820Y-97265108D01*
X128793824Y-97265104D01*
X128796454Y-97262608D01*
X128884994Y-97156716D01*
X129016646Y-96999261D01*
X129018968Y-96996484D01*
X129033156Y-96974885D01*
X129207432Y-96709575D01*
X129207437Y-96709566D01*
X129209419Y-96706549D01*
X129334677Y-96457503D01*
X129363658Y-96399882D01*
X129363661Y-96399874D01*
X129365285Y-96396646D01*
X129431859Y-96214723D01*
X129483249Y-96074293D01*
X129483252Y-96074284D01*
X129484497Y-96070881D01*
X129485342Y-96067359D01*
X129485345Y-96067351D01*
X129564631Y-95737103D01*
X129564632Y-95737099D01*
X129565478Y-95733574D01*
X129565915Y-95729964D01*
X129606816Y-95391973D01*
X129606816Y-95391967D01*
X129607152Y-95389194D01*
X129608381Y-95350107D01*
X129613010Y-95202797D01*
X129613098Y-95200000D01*
X129612702Y-95193135D01*
X129593338Y-94857303D01*
X129593337Y-94857298D01*
X129593129Y-94853683D01*
X129554199Y-94630619D01*
X129534113Y-94515529D01*
X129534111Y-94515522D01*
X129533489Y-94511956D01*
X129509131Y-94429723D01*
X129476831Y-94320683D01*
X129434966Y-94179349D01*
X129298867Y-93860271D01*
X129286689Y-93838919D01*
X129128788Y-93562089D01*
X129126997Y-93558949D01*
X129071557Y-93483476D01*
X129008463Y-93397585D01*
X128921632Y-93279379D01*
X128878093Y-93232525D01*
X128687967Y-93027926D01*
X128687965Y-93027925D01*
X128685495Y-93025266D01*
X128682741Y-93022914D01*
X128682737Y-93022910D01*
X128511660Y-92876797D01*
X128421716Y-92799977D01*
X128133792Y-92606500D01*
X128130583Y-92604844D01*
X128130575Y-92604839D01*
X127828757Y-92449060D01*
X127828758Y-92449060D01*
X127825537Y-92447398D01*
X127822156Y-92446120D01*
X127822146Y-92446116D01*
X127591433Y-92358937D01*
X127501039Y-92324780D01*
X127497518Y-92323896D01*
X127497513Y-92323894D01*
X127336263Y-92283391D01*
X127164598Y-92240272D01*
X127145527Y-92237761D01*
X126824278Y-92195468D01*
X126824270Y-92195467D01*
X126820674Y-92194994D01*
X126676178Y-92192724D01*
X126477467Y-92189602D01*
X126477463Y-92189602D01*
X126473825Y-92189545D01*
X126470211Y-92189906D01*
X126470205Y-92189906D01*
X126226172Y-92214264D01*
X126128648Y-92223998D01*
X125789718Y-92297897D01*
X125786291Y-92299070D01*
X125786285Y-92299072D01*
X125464960Y-92409086D01*
X125464955Y-92409088D01*
X125461529Y-92410261D01*
X125458261Y-92411820D01*
X125458253Y-92411823D01*
X125380185Y-92449060D01*
X125148429Y-92559602D01*
X124854569Y-92743940D01*
X124851735Y-92746210D01*
X124851730Y-92746214D01*
X124781680Y-92802335D01*
X124583844Y-92960832D01*
X124525444Y-93019847D01*
X124357928Y-93189127D01*
X124339842Y-93207403D01*
X124125797Y-93480384D01*
X124123904Y-93483473D01*
X124123902Y-93483476D01*
X124078916Y-93556887D01*
X123944546Y-93776158D01*
X123943021Y-93779443D01*
X123943019Y-93779447D01*
X123885650Y-93903039D01*
X123798492Y-94090805D01*
X123689571Y-94420153D01*
X123688835Y-94423708D01*
X123688834Y-94423711D01*
X123650699Y-94607858D01*
X123619226Y-94759838D01*
X123588389Y-95105356D01*
X119552587Y-95105356D01*
X123031538Y-91626405D01*
X123093850Y-91592379D01*
X123120633Y-91589500D01*
X128100075Y-91589500D01*
X128119786Y-91591051D01*
X128126673Y-91592142D01*
X128126675Y-91592142D01*
X128133190Y-91593174D01*
X128139778Y-91592829D01*
X128139782Y-91592829D01*
X128199999Y-91589673D01*
X128206593Y-91589500D01*
X128226620Y-91589500D01*
X128229891Y-91589156D01*
X128229895Y-91589156D01*
X128246539Y-91587407D01*
X128253113Y-91586890D01*
X128313316Y-91583735D01*
X128313318Y-91583735D01*
X128319915Y-91583389D01*
X128333028Y-91579875D01*
X128352470Y-91576272D01*
X128353712Y-91576142D01*
X128359385Y-91575546D01*
X128359389Y-91575545D01*
X128365956Y-91574855D01*
X128429581Y-91554182D01*
X128435906Y-91552309D01*
X128443359Y-91550312D01*
X128500524Y-91534994D01*
X128512616Y-91528833D01*
X128530875Y-91521270D01*
X128543785Y-91517075D01*
X128601724Y-91483624D01*
X128607520Y-91480477D01*
X128667125Y-91450107D01*
X128677670Y-91441568D01*
X128693955Y-91430375D01*
X128700002Y-91426884D01*
X128700005Y-91426881D01*
X128705715Y-91423585D01*
X128710615Y-91419173D01*
X128710619Y-91419170D01*
X128755425Y-91378825D01*
X128760446Y-91374537D01*
X128773441Y-91364014D01*
X128776006Y-91361937D01*
X128790153Y-91347790D01*
X128794937Y-91343249D01*
X128839766Y-91302885D01*
X128839767Y-91302883D01*
X128844669Y-91298470D01*
X128852652Y-91287482D01*
X128865489Y-91272454D01*
X129860905Y-90277038D01*
X129923217Y-90243012D01*
X129994032Y-90248077D01*
X130039095Y-90277038D01*
X133723595Y-93961538D01*
X133757621Y-94023850D01*
X133760500Y-94050633D01*
X133760500Y-95961158D01*
X133740498Y-96029279D01*
X133723595Y-96050253D01*
X133678790Y-96095058D01*
X133552032Y-96276088D01*
X133458635Y-96476379D01*
X133401437Y-96689845D01*
X133382176Y-96910000D01*
X133401437Y-97130155D01*
X133402861Y-97135468D01*
X133402861Y-97135470D01*
X133449132Y-97308154D01*
X133458635Y-97343621D01*
X133460958Y-97348602D01*
X133460958Y-97348603D01*
X133533221Y-97503571D01*
X133552032Y-97543912D01*
X133678790Y-97724942D01*
X133835058Y-97881210D01*
X134016088Y-98007968D01*
X134021069Y-98010291D01*
X134021073Y-98010293D01*
X134087097Y-98041080D01*
X134140383Y-98087997D01*
X134159844Y-98156274D01*
X134139303Y-98224234D01*
X134087099Y-98269469D01*
X134021328Y-98300139D01*
X134011832Y-98305622D01*
X133969620Y-98335178D01*
X133961245Y-98345655D01*
X133968312Y-98359101D01*
X134637189Y-99027979D01*
X134651132Y-99035592D01*
X134652966Y-99035461D01*
X134659580Y-99031210D01*
X135332412Y-98358377D01*
X135338839Y-98346607D01*
X135329544Y-98334593D01*
X135288167Y-98305621D01*
X135278681Y-98300143D01*
X135212902Y-98269470D01*
X135159617Y-98222553D01*
X135140156Y-98154275D01*
X135160698Y-98086315D01*
X135212903Y-98041080D01*
X135278927Y-98010293D01*
X135278931Y-98010291D01*
X135283912Y-98007968D01*
X135464942Y-97881210D01*
X135621210Y-97724942D01*
X135747968Y-97543912D01*
X135766780Y-97503571D01*
X135805805Y-97419880D01*
X135852722Y-97366595D01*
X135921000Y-97347134D01*
X135988959Y-97367676D01*
X136034195Y-97419880D01*
X136073221Y-97503571D01*
X136092032Y-97543912D01*
X136218790Y-97724942D01*
X136375058Y-97881210D01*
X136461833Y-97941970D01*
X136506162Y-97997427D01*
X136513471Y-98068046D01*
X136481441Y-98131406D01*
X136422174Y-98166890D01*
X136271689Y-98207212D01*
X136271687Y-98207213D01*
X136266379Y-98208635D01*
X136261398Y-98210958D01*
X136261397Y-98210958D01*
X136071069Y-98299709D01*
X136071066Y-98299711D01*
X136066088Y-98302032D01*
X135885058Y-98428790D01*
X135728790Y-98585058D01*
X135602032Y-98766088D01*
X135599705Y-98771078D01*
X135599704Y-98771080D01*
X135575520Y-98822944D01*
X135550420Y-98858791D01*
X135022021Y-99387189D01*
X135014408Y-99401132D01*
X135014539Y-99402966D01*
X135018790Y-99409580D01*
X135550420Y-99941209D01*
X135575519Y-99977055D01*
X135602032Y-100033912D01*
X135728790Y-100214942D01*
X135885058Y-100371210D01*
X136066088Y-100497968D01*
X136071066Y-100500289D01*
X136071069Y-100500291D01*
X136260387Y-100588571D01*
X136266379Y-100591365D01*
X136271687Y-100592787D01*
X136271689Y-100592788D01*
X136474530Y-100647139D01*
X136474532Y-100647139D01*
X136479845Y-100648563D01*
X136700000Y-100667824D01*
X136920155Y-100648563D01*
X136925468Y-100647139D01*
X136925470Y-100647139D01*
X137128311Y-100592788D01*
X137128313Y-100592787D01*
X137133621Y-100591365D01*
X137139613Y-100588571D01*
X137328931Y-100500291D01*
X137328934Y-100500289D01*
X137333912Y-100497968D01*
X137514942Y-100371210D01*
X137671210Y-100214942D01*
X137797968Y-100033912D01*
X137885805Y-99845543D01*
X137932722Y-99792259D01*
X138000999Y-99772798D01*
X138068959Y-99793340D01*
X138114195Y-99845543D01*
X138202032Y-100033912D01*
X138328790Y-100214942D01*
X138485058Y-100371210D01*
X138666088Y-100497968D01*
X138671066Y-100500289D01*
X138671069Y-100500291D01*
X138860387Y-100588571D01*
X138866379Y-100591365D01*
X138871687Y-100592787D01*
X138871689Y-100592788D01*
X139074530Y-100647139D01*
X139074532Y-100647139D01*
X139079845Y-100648563D01*
X139300000Y-100667824D01*
X139520155Y-100648563D01*
X139525468Y-100647139D01*
X139525470Y-100647139D01*
X139728311Y-100592788D01*
X139728313Y-100592787D01*
X139733621Y-100591365D01*
X139739613Y-100588571D01*
X139928931Y-100500291D01*
X139928934Y-100500289D01*
X139933912Y-100497968D01*
X140114942Y-100371210D01*
X140235905Y-100250247D01*
X140298217Y-100216221D01*
X140369032Y-100221286D01*
X140414095Y-100250247D01*
X140535058Y-100371210D01*
X140716088Y-100497968D01*
X140721066Y-100500289D01*
X140721069Y-100500291D01*
X140910387Y-100588571D01*
X140916379Y-100591365D01*
X140921687Y-100592787D01*
X140921689Y-100592788D01*
X141124530Y-100647139D01*
X141124532Y-100647139D01*
X141129845Y-100648563D01*
X141350000Y-100667824D01*
X141570155Y-100648563D01*
X141575468Y-100647139D01*
X141575470Y-100647139D01*
X141699527Y-100613898D01*
X143337041Y-100613898D01*
X143342875Y-100623665D01*
X144747188Y-102027978D01*
X144761132Y-102035592D01*
X144762965Y-102035461D01*
X144769580Y-102031210D01*
X146175372Y-100625418D01*
X146182886Y-100611658D01*
X146176427Y-100602296D01*
X146157417Y-100585625D01*
X146150875Y-100580605D01*
X145908635Y-100418746D01*
X145901498Y-100414625D01*
X145640198Y-100285767D01*
X145632594Y-100282617D01*
X145356707Y-100188966D01*
X145348755Y-100186835D01*
X145063001Y-100129995D01*
X145054843Y-100128921D01*
X144764119Y-100109866D01*
X144755881Y-100109866D01*
X144465157Y-100128921D01*
X144456999Y-100129995D01*
X144171245Y-100186835D01*
X144163293Y-100188966D01*
X143887406Y-100282617D01*
X143879802Y-100285767D01*
X143618502Y-100414625D01*
X143611365Y-100418746D01*
X143369125Y-100580605D01*
X143362583Y-100585625D01*
X143345437Y-100600661D01*
X143337041Y-100613898D01*
X141699527Y-100613898D01*
X141778311Y-100592788D01*
X141778313Y-100592787D01*
X141783621Y-100591365D01*
X141789613Y-100588571D01*
X141978931Y-100500291D01*
X141978934Y-100500289D01*
X141983912Y-100497968D01*
X142164942Y-100371210D01*
X142321210Y-100214942D01*
X142447968Y-100033912D01*
X142474481Y-99977056D01*
X142539042Y-99838603D01*
X142539042Y-99838602D01*
X142541365Y-99833621D01*
X142557663Y-99772798D01*
X142597139Y-99625470D01*
X142597139Y-99625468D01*
X142598563Y-99620155D01*
X142617824Y-99400000D01*
X142598563Y-99179845D01*
X142559911Y-99035592D01*
X142542788Y-98971689D01*
X142542787Y-98971687D01*
X142541365Y-98966379D01*
X142491196Y-98858791D01*
X142450291Y-98771069D01*
X142450289Y-98771066D01*
X142447968Y-98766088D01*
X142321210Y-98585058D01*
X142164942Y-98428790D01*
X141983912Y-98302032D01*
X141978934Y-98299711D01*
X141978931Y-98299709D01*
X141913493Y-98269195D01*
X141860208Y-98222278D01*
X141840747Y-98154000D01*
X141861289Y-98086040D01*
X141913493Y-98040805D01*
X141978931Y-98010291D01*
X141978934Y-98010289D01*
X141983912Y-98007968D01*
X142164942Y-97881210D01*
X142321210Y-97724942D01*
X142447968Y-97543912D01*
X142466780Y-97503571D01*
X142539042Y-97348603D01*
X142539042Y-97348602D01*
X142541365Y-97343621D01*
X142550869Y-97308154D01*
X142597139Y-97135470D01*
X142597139Y-97135468D01*
X142598563Y-97130155D01*
X142617824Y-96910000D01*
X142598563Y-96689845D01*
X142541365Y-96476379D01*
X142447968Y-96276088D01*
X142321210Y-96095058D01*
X142164942Y-95938790D01*
X141983912Y-95812032D01*
X141978934Y-95809711D01*
X141978931Y-95809709D01*
X141788603Y-95720958D01*
X141788602Y-95720958D01*
X141783621Y-95718635D01*
X141778313Y-95717213D01*
X141778311Y-95717212D01*
X141575470Y-95662861D01*
X141575468Y-95662861D01*
X141570155Y-95661437D01*
X141350000Y-95642176D01*
X141129845Y-95661437D01*
X141124532Y-95662861D01*
X141124530Y-95662861D01*
X140921689Y-95717212D01*
X140921687Y-95717213D01*
X140916379Y-95718635D01*
X140911398Y-95720958D01*
X140911397Y-95720958D01*
X140721069Y-95809709D01*
X140721066Y-95809711D01*
X140716088Y-95812032D01*
X140535058Y-95938790D01*
X140414095Y-96059753D01*
X140351783Y-96093779D01*
X140280968Y-96088714D01*
X140235905Y-96059753D01*
X140114942Y-95938790D01*
X139933912Y-95812032D01*
X139928934Y-95809711D01*
X139928931Y-95809709D01*
X139738603Y-95720958D01*
X139738602Y-95720958D01*
X139733621Y-95718635D01*
X139728313Y-95717213D01*
X139728311Y-95717212D01*
X139525470Y-95662861D01*
X139525468Y-95662861D01*
X139520155Y-95661437D01*
X139300000Y-95642176D01*
X139079845Y-95661437D01*
X139074532Y-95662861D01*
X139074530Y-95662861D01*
X138871689Y-95717212D01*
X138871687Y-95717213D01*
X138866379Y-95718635D01*
X138861398Y-95720958D01*
X138861397Y-95720958D01*
X138671069Y-95809709D01*
X138671066Y-95809711D01*
X138666088Y-95812032D01*
X138485058Y-95938790D01*
X138334095Y-96089753D01*
X138271783Y-96123779D01*
X138200968Y-96118714D01*
X138155905Y-96089753D01*
X138004942Y-95938790D01*
X137823912Y-95812032D01*
X137818934Y-95809711D01*
X137818931Y-95809709D01*
X137628603Y-95720958D01*
X137628602Y-95720958D01*
X137623621Y-95718635D01*
X137618313Y-95717213D01*
X137618311Y-95717212D01*
X137415470Y-95662861D01*
X137415468Y-95662861D01*
X137410155Y-95661437D01*
X137190000Y-95642176D01*
X136969845Y-95661437D01*
X136964532Y-95662861D01*
X136964530Y-95662861D01*
X136761689Y-95717212D01*
X136761687Y-95717213D01*
X136756379Y-95718635D01*
X136751398Y-95720958D01*
X136751397Y-95720958D01*
X136561069Y-95809709D01*
X136561066Y-95809711D01*
X136556088Y-95812032D01*
X136375058Y-95938790D01*
X136218790Y-96095058D01*
X136092032Y-96276088D01*
X136089711Y-96281066D01*
X136089709Y-96281069D01*
X136034195Y-96400120D01*
X135987278Y-96453405D01*
X135919000Y-96472866D01*
X135851041Y-96452324D01*
X135805805Y-96400120D01*
X135750291Y-96281069D01*
X135750289Y-96281066D01*
X135747968Y-96276088D01*
X135621210Y-96095058D01*
X135576405Y-96050253D01*
X135542379Y-95987941D01*
X135539500Y-95961158D01*
X135539500Y-93709925D01*
X135541051Y-93690214D01*
X135542142Y-93683327D01*
X135542142Y-93683325D01*
X135543174Y-93676810D01*
X135542563Y-93665138D01*
X135539673Y-93610001D01*
X135539500Y-93603407D01*
X135539500Y-93583380D01*
X135539156Y-93580105D01*
X135537407Y-93563461D01*
X135536890Y-93556887D01*
X135533735Y-93496684D01*
X135533735Y-93496682D01*
X135533389Y-93490085D01*
X135529875Y-93476972D01*
X135526272Y-93457529D01*
X135525546Y-93450615D01*
X135525545Y-93450611D01*
X135524855Y-93444044D01*
X135504182Y-93380418D01*
X135502309Y-93374094D01*
X135486704Y-93315859D01*
X135484994Y-93309476D01*
X135478833Y-93297384D01*
X135471269Y-93279123D01*
X135471100Y-93278602D01*
X135467075Y-93266215D01*
X135433624Y-93208276D01*
X135430477Y-93202480D01*
X135422972Y-93187751D01*
X135400107Y-93142875D01*
X135391568Y-93132330D01*
X135380375Y-93116045D01*
X135376884Y-93109998D01*
X135376881Y-93109995D01*
X135373585Y-93104285D01*
X135369173Y-93099385D01*
X135369170Y-93099381D01*
X135328825Y-93054575D01*
X135324537Y-93049554D01*
X135314014Y-93036559D01*
X135311937Y-93033994D01*
X135297790Y-93019847D01*
X135293249Y-93015063D01*
X135252885Y-92970234D01*
X135252883Y-92970233D01*
X135248470Y-92965331D01*
X135237482Y-92957348D01*
X135222454Y-92944511D01*
X131251201Y-88973258D01*
X131217175Y-88910946D01*
X131214775Y-88895145D01*
X131202245Y-88751936D01*
X131198563Y-88709845D01*
X131141365Y-88496379D01*
X131047968Y-88296088D01*
X130921210Y-88115058D01*
X130764942Y-87958790D01*
X130583912Y-87832032D01*
X130578931Y-87829709D01*
X130578927Y-87829707D01*
X130512903Y-87798920D01*
X130459617Y-87752003D01*
X130440156Y-87683726D01*
X130460697Y-87615766D01*
X130512902Y-87570530D01*
X130578681Y-87539857D01*
X130588167Y-87534379D01*
X130630379Y-87504823D01*
X130638755Y-87494344D01*
X130631689Y-87480900D01*
X129962811Y-86812021D01*
X129948868Y-86804408D01*
X129947034Y-86804539D01*
X129940420Y-86808790D01*
X129267588Y-87481623D01*
X129261161Y-87493393D01*
X129270456Y-87505407D01*
X129311833Y-87534379D01*
X129321319Y-87539857D01*
X129387098Y-87570530D01*
X129440383Y-87617447D01*
X129459844Y-87685725D01*
X129439302Y-87753685D01*
X129387097Y-87798920D01*
X129321073Y-87829707D01*
X129321069Y-87829709D01*
X129316088Y-87832032D01*
X129135058Y-87958790D01*
X128978790Y-88115058D01*
X128852032Y-88296088D01*
X128849711Y-88301066D01*
X128849709Y-88301069D01*
X128794195Y-88420120D01*
X128747278Y-88473405D01*
X128679000Y-88492866D01*
X128611041Y-88472324D01*
X128565805Y-88420120D01*
X128510291Y-88301069D01*
X128510289Y-88301066D01*
X128507968Y-88296088D01*
X128381210Y-88115058D01*
X128224942Y-87958790D01*
X128138167Y-87898029D01*
X128093838Y-87842573D01*
X128086529Y-87771954D01*
X128118559Y-87708594D01*
X128177826Y-87673110D01*
X128328311Y-87632788D01*
X128328313Y-87632787D01*
X128333621Y-87631365D01*
X128362879Y-87617722D01*
X128528931Y-87540291D01*
X128528934Y-87540289D01*
X128533912Y-87537968D01*
X128714942Y-87411210D01*
X128871210Y-87254942D01*
X128997968Y-87073912D01*
X129024481Y-87017055D01*
X129049580Y-86981209D01*
X129577979Y-86452811D01*
X129584356Y-86441132D01*
X130314408Y-86441132D01*
X130314539Y-86442966D01*
X130318790Y-86449580D01*
X130991623Y-87122412D01*
X131003392Y-87128839D01*
X131015408Y-87119542D01*
X131044378Y-87078168D01*
X131049858Y-87068677D01*
X131138571Y-86878432D01*
X131142317Y-86868140D01*
X131196646Y-86665381D01*
X131198549Y-86654589D01*
X131216844Y-86445475D01*
X131216844Y-86434525D01*
X131198549Y-86225411D01*
X131196646Y-86214619D01*
X131142317Y-86011860D01*
X131138571Y-86001568D01*
X131049858Y-85811323D01*
X131044378Y-85801832D01*
X131014822Y-85759620D01*
X131004345Y-85751245D01*
X130990899Y-85758312D01*
X130322021Y-86427189D01*
X130314408Y-86441132D01*
X129584356Y-86441132D01*
X129585592Y-86438868D01*
X129585461Y-86437034D01*
X129581210Y-86430420D01*
X129049580Y-85898791D01*
X129024480Y-85862944D01*
X129000296Y-85811080D01*
X129000295Y-85811078D01*
X128997968Y-85806088D01*
X128871210Y-85625058D01*
X128714942Y-85468790D01*
X128596212Y-85385655D01*
X129261245Y-85385655D01*
X129268312Y-85399101D01*
X129937189Y-86067979D01*
X129951132Y-86075592D01*
X129952966Y-86075461D01*
X129959580Y-86071210D01*
X130632412Y-85398377D01*
X130638839Y-85386607D01*
X130629544Y-85374593D01*
X130588167Y-85345621D01*
X130578681Y-85340143D01*
X130388432Y-85251429D01*
X130378140Y-85247683D01*
X130305958Y-85228342D01*
X131937114Y-85228342D01*
X131943573Y-85237704D01*
X131962583Y-85254375D01*
X131969125Y-85259395D01*
X132211365Y-85421254D01*
X132218502Y-85425375D01*
X132479802Y-85554233D01*
X132487406Y-85557383D01*
X132763293Y-85651034D01*
X132771245Y-85653165D01*
X133056999Y-85710005D01*
X133065157Y-85711079D01*
X133355881Y-85730134D01*
X133364119Y-85730134D01*
X133654843Y-85711079D01*
X133663001Y-85710005D01*
X133948755Y-85653165D01*
X133956707Y-85651034D01*
X134232594Y-85557383D01*
X134240198Y-85554233D01*
X134501498Y-85425375D01*
X134508635Y-85421254D01*
X134750875Y-85259395D01*
X134757417Y-85254375D01*
X134774563Y-85239339D01*
X134782959Y-85226102D01*
X134777125Y-85216335D01*
X133372812Y-83812022D01*
X133358868Y-83804408D01*
X133357035Y-83804539D01*
X133350420Y-83808790D01*
X131944628Y-85214582D01*
X131937114Y-85228342D01*
X130305958Y-85228342D01*
X130175381Y-85193354D01*
X130164589Y-85191451D01*
X129955475Y-85173156D01*
X129944525Y-85173156D01*
X129735411Y-85191451D01*
X129724619Y-85193354D01*
X129521860Y-85247683D01*
X129511568Y-85251429D01*
X129321323Y-85340142D01*
X129311832Y-85345622D01*
X129269620Y-85375178D01*
X129261245Y-85385655D01*
X128596212Y-85385655D01*
X128533912Y-85342032D01*
X128528934Y-85339711D01*
X128528931Y-85339709D01*
X128338603Y-85250958D01*
X128338602Y-85250958D01*
X128333621Y-85248635D01*
X128328313Y-85247213D01*
X128328311Y-85247212D01*
X128125470Y-85192861D01*
X128125468Y-85192861D01*
X128120155Y-85191437D01*
X127900000Y-85172176D01*
X127679845Y-85191437D01*
X127674532Y-85192861D01*
X127674530Y-85192861D01*
X127471689Y-85247212D01*
X127471687Y-85247213D01*
X127466379Y-85248635D01*
X127461398Y-85250958D01*
X127461397Y-85250958D01*
X127271069Y-85339709D01*
X127271066Y-85339711D01*
X127266088Y-85342032D01*
X127085058Y-85468790D01*
X126928790Y-85625058D01*
X126802032Y-85806088D01*
X126799711Y-85811066D01*
X126799709Y-85811069D01*
X126714195Y-85994456D01*
X126667278Y-86047741D01*
X126599001Y-86067202D01*
X126531041Y-86046660D01*
X126485805Y-85994456D01*
X126400291Y-85811069D01*
X126400289Y-85811066D01*
X126397968Y-85806088D01*
X126271210Y-85625058D01*
X126114942Y-85468790D01*
X125933912Y-85342032D01*
X125928934Y-85339711D01*
X125928931Y-85339709D01*
X125738603Y-85250958D01*
X125738602Y-85250958D01*
X125733621Y-85248635D01*
X125728313Y-85247213D01*
X125728311Y-85247212D01*
X125525470Y-85192861D01*
X125525468Y-85192861D01*
X125520155Y-85191437D01*
X125300000Y-85172176D01*
X125079845Y-85191437D01*
X125074532Y-85192861D01*
X125074530Y-85192861D01*
X124871689Y-85247212D01*
X124871687Y-85247213D01*
X124866379Y-85248635D01*
X124861398Y-85250958D01*
X124861397Y-85250958D01*
X124671069Y-85339709D01*
X124671066Y-85339711D01*
X124666088Y-85342032D01*
X124485058Y-85468790D01*
X124364095Y-85589753D01*
X124301783Y-85623779D01*
X124230968Y-85618714D01*
X124185905Y-85589753D01*
X124064942Y-85468790D01*
X123883912Y-85342032D01*
X123878934Y-85339711D01*
X123878931Y-85339709D01*
X123688603Y-85250958D01*
X123688602Y-85250958D01*
X123683621Y-85248635D01*
X123678313Y-85247213D01*
X123678311Y-85247212D01*
X123475470Y-85192861D01*
X123475468Y-85192861D01*
X123470155Y-85191437D01*
X123250000Y-85172176D01*
X123029845Y-85191437D01*
X123024532Y-85192861D01*
X123024530Y-85192861D01*
X122821689Y-85247212D01*
X122821687Y-85247213D01*
X122816379Y-85248635D01*
X122811398Y-85250958D01*
X122811397Y-85250958D01*
X122621069Y-85339709D01*
X122621066Y-85339711D01*
X122616088Y-85342032D01*
X122435058Y-85468790D01*
X122278790Y-85625058D01*
X122152032Y-85806088D01*
X122149711Y-85811066D01*
X122149709Y-85811069D01*
X122108804Y-85898791D01*
X122058635Y-86006379D01*
X122057213Y-86011687D01*
X122057212Y-86011689D01*
X122040089Y-86075592D01*
X122001437Y-86219845D01*
X121982176Y-86440000D01*
X122001437Y-86660155D01*
X122002861Y-86665468D01*
X122002861Y-86665470D01*
X122042338Y-86812798D01*
X122058635Y-86873621D01*
X122060958Y-86878602D01*
X122060958Y-86878603D01*
X122125520Y-87017056D01*
X122152032Y-87073912D01*
X122278790Y-87254942D01*
X122435058Y-87411210D01*
X122616088Y-87537968D01*
X122621066Y-87540289D01*
X122621069Y-87540291D01*
X122686507Y-87570805D01*
X122739792Y-87617722D01*
X122759253Y-87686000D01*
X122738711Y-87753960D01*
X122686507Y-87799195D01*
X122621069Y-87829709D01*
X122621066Y-87829711D01*
X122616088Y-87832032D01*
X122435058Y-87958790D01*
X122278790Y-88115058D01*
X122152032Y-88296088D01*
X122058635Y-88496379D01*
X122001437Y-88709845D01*
X121982176Y-88930000D01*
X122001437Y-89150155D01*
X122002861Y-89155468D01*
X122002861Y-89155470D01*
X122011367Y-89187213D01*
X122058635Y-89363621D01*
X122152032Y-89563912D01*
X122278790Y-89744942D01*
X122278817Y-89744969D01*
X122306602Y-89808459D01*
X122295383Y-89878564D01*
X122248044Y-89931474D01*
X122238817Y-89936675D01*
X122218762Y-89946893D01*
X122218759Y-89946895D01*
X122212875Y-89949893D01*
X122202330Y-89958432D01*
X122186045Y-89969625D01*
X122179998Y-89973116D01*
X122179995Y-89973119D01*
X122174285Y-89976415D01*
X122169385Y-89980827D01*
X122169381Y-89980830D01*
X122124575Y-90021175D01*
X122119554Y-90025463D01*
X122103994Y-90038063D01*
X122089847Y-90052210D01*
X122085063Y-90056751D01*
X122035331Y-90101530D01*
X122027348Y-90112518D01*
X122014511Y-90127546D01*
X118468462Y-93673595D01*
X118406150Y-93707621D01*
X118379367Y-93710500D01*
X115218387Y-93710500D01*
X115150266Y-93690498D01*
X115103773Y-93636842D01*
X115093669Y-93566568D01*
X115123163Y-93501988D01*
X115148382Y-93479737D01*
X115157039Y-93473953D01*
X115157059Y-93473939D01*
X115159104Y-93472572D01*
X115520592Y-93187587D01*
X115588702Y-93124624D01*
X115856789Y-92876797D01*
X115856792Y-92876794D01*
X115858605Y-92875118D01*
X115981649Y-92742005D01*
X116169369Y-92538924D01*
X116169375Y-92538917D01*
X116171061Y-92537093D01*
X116172605Y-92535135D01*
X116454491Y-92177551D01*
X116454499Y-92177539D01*
X116456033Y-92175594D01*
X116711763Y-91792852D01*
X116936675Y-91391224D01*
X117129383Y-90973189D01*
X117288698Y-90541322D01*
X117411219Y-90106865D01*
X117412968Y-90100664D01*
X117412970Y-90100656D01*
X117413638Y-90098287D01*
X117421900Y-90056751D01*
X117502950Y-89649244D01*
X117502950Y-89649241D01*
X117503433Y-89646815D01*
X117557529Y-89189690D01*
X117567727Y-88930000D01*
X117574467Y-88758393D01*
X117575126Y-88751936D01*
X117574901Y-88751916D01*
X117575335Y-88747072D01*
X117576143Y-88742269D01*
X117576296Y-88729730D01*
X117575215Y-88722178D01*
X117572970Y-88706507D01*
X117572345Y-88702145D01*
X117571072Y-88684281D01*
X117571072Y-85228342D01*
X118417114Y-85228342D01*
X118423573Y-85237704D01*
X118442583Y-85254375D01*
X118449125Y-85259395D01*
X118691365Y-85421254D01*
X118698502Y-85425375D01*
X118959802Y-85554233D01*
X118967406Y-85557383D01*
X119243293Y-85651034D01*
X119251245Y-85653165D01*
X119536999Y-85710005D01*
X119545157Y-85711079D01*
X119835881Y-85730134D01*
X119844119Y-85730134D01*
X120134843Y-85711079D01*
X120143001Y-85710005D01*
X120428755Y-85653165D01*
X120436707Y-85651034D01*
X120712594Y-85557383D01*
X120720198Y-85554233D01*
X120981498Y-85425375D01*
X120988635Y-85421254D01*
X121230875Y-85259395D01*
X121237417Y-85254375D01*
X121254563Y-85239339D01*
X121262959Y-85226102D01*
X121257125Y-85216335D01*
X119852812Y-83812022D01*
X119838868Y-83804408D01*
X119837035Y-83804539D01*
X119830420Y-83808790D01*
X118424628Y-85214582D01*
X118417114Y-85228342D01*
X117571072Y-85228342D01*
X117571072Y-84546893D01*
X117591074Y-84478772D01*
X117644730Y-84432279D01*
X117715004Y-84422175D01*
X117779584Y-84451669D01*
X117810078Y-84491165D01*
X117854625Y-84581498D01*
X117858746Y-84588635D01*
X118020605Y-84830875D01*
X118025625Y-84837417D01*
X118040661Y-84854563D01*
X118053898Y-84862959D01*
X118063665Y-84857125D01*
X119467978Y-83452812D01*
X119474356Y-83441132D01*
X120204408Y-83441132D01*
X120204539Y-83442965D01*
X120208790Y-83449580D01*
X121614582Y-84855372D01*
X121628342Y-84862886D01*
X121637704Y-84856427D01*
X121654375Y-84837417D01*
X121659395Y-84830875D01*
X121821254Y-84588635D01*
X121825375Y-84581498D01*
X121905834Y-84418342D01*
X125177114Y-84418342D01*
X125183573Y-84427704D01*
X125202583Y-84444375D01*
X125209125Y-84449395D01*
X125451365Y-84611254D01*
X125458502Y-84615375D01*
X125719802Y-84744233D01*
X125727406Y-84747383D01*
X126003293Y-84841034D01*
X126011245Y-84843165D01*
X126296999Y-84900005D01*
X126305157Y-84901079D01*
X126595881Y-84920134D01*
X126604119Y-84920134D01*
X126894843Y-84901079D01*
X126903001Y-84900005D01*
X127188755Y-84843165D01*
X127196707Y-84841034D01*
X127472594Y-84747383D01*
X127480198Y-84744233D01*
X127741498Y-84615375D01*
X127748635Y-84611254D01*
X127990875Y-84449395D01*
X127997417Y-84444375D01*
X128014563Y-84429339D01*
X128022959Y-84416102D01*
X128017125Y-84406335D01*
X126612812Y-83002022D01*
X126598868Y-82994408D01*
X126597035Y-82994539D01*
X126590420Y-82998790D01*
X125184628Y-84404582D01*
X125177114Y-84418342D01*
X121905834Y-84418342D01*
X121954233Y-84320198D01*
X121957383Y-84312594D01*
X122051034Y-84036707D01*
X122053165Y-84028755D01*
X122110005Y-83743001D01*
X122111079Y-83734843D01*
X122130134Y-83444119D01*
X122130134Y-83435881D01*
X122111079Y-83145157D01*
X122110005Y-83136999D01*
X122053165Y-82851245D01*
X122051034Y-82843293D01*
X121980029Y-82634119D01*
X124309866Y-82634119D01*
X124328921Y-82924843D01*
X124329995Y-82933001D01*
X124386835Y-83218755D01*
X124388966Y-83226707D01*
X124482617Y-83502594D01*
X124485767Y-83510198D01*
X124614625Y-83771498D01*
X124618746Y-83778635D01*
X124780605Y-84020875D01*
X124785625Y-84027417D01*
X124800661Y-84044563D01*
X124813898Y-84052959D01*
X124823665Y-84047125D01*
X126227978Y-82642812D01*
X126234356Y-82631132D01*
X126964408Y-82631132D01*
X126964539Y-82632965D01*
X126968790Y-82639580D01*
X128374582Y-84045372D01*
X128388342Y-84052886D01*
X128397704Y-84046427D01*
X128414375Y-84027417D01*
X128419395Y-84020875D01*
X128581254Y-83778635D01*
X128585375Y-83771498D01*
X128714233Y-83510198D01*
X128717383Y-83502594D01*
X128737233Y-83444119D01*
X131069866Y-83444119D01*
X131088921Y-83734843D01*
X131089995Y-83743001D01*
X131146835Y-84028755D01*
X131148966Y-84036707D01*
X131242617Y-84312594D01*
X131245767Y-84320198D01*
X131374625Y-84581498D01*
X131378746Y-84588635D01*
X131540605Y-84830875D01*
X131545625Y-84837417D01*
X131560661Y-84854563D01*
X131573898Y-84862959D01*
X131583665Y-84857125D01*
X132987978Y-83452812D01*
X132995592Y-83438868D01*
X132995461Y-83437035D01*
X132991210Y-83430420D01*
X131585418Y-82024628D01*
X131571658Y-82017114D01*
X131562296Y-82023573D01*
X131545625Y-82042583D01*
X131540605Y-82049125D01*
X131378746Y-82291365D01*
X131374625Y-82298502D01*
X131245767Y-82559802D01*
X131242617Y-82567406D01*
X131148966Y-82843293D01*
X131146835Y-82851245D01*
X131089995Y-83136999D01*
X131088921Y-83145157D01*
X131069866Y-83435881D01*
X131069866Y-83444119D01*
X128737233Y-83444119D01*
X128811034Y-83226707D01*
X128813165Y-83218755D01*
X128870005Y-82933001D01*
X128871079Y-82924843D01*
X128890134Y-82634119D01*
X128890134Y-82625881D01*
X128871079Y-82335157D01*
X128870005Y-82326999D01*
X128813165Y-82041245D01*
X128811034Y-82033293D01*
X128717383Y-81757406D01*
X128714233Y-81749802D01*
X128666939Y-81653898D01*
X131937041Y-81653898D01*
X131942875Y-81663665D01*
X133347188Y-83067978D01*
X133361132Y-83075592D01*
X133362965Y-83075461D01*
X133369580Y-83071210D01*
X134775372Y-81665418D01*
X134782886Y-81651658D01*
X134776427Y-81642296D01*
X134757417Y-81625625D01*
X134750875Y-81620605D01*
X134508635Y-81458746D01*
X134501498Y-81454625D01*
X134240198Y-81325767D01*
X134232594Y-81322617D01*
X133956707Y-81228966D01*
X133948755Y-81226835D01*
X133663001Y-81169995D01*
X133654843Y-81168921D01*
X133364119Y-81149866D01*
X133355881Y-81149866D01*
X133065157Y-81168921D01*
X133056999Y-81169995D01*
X132771245Y-81226835D01*
X132763293Y-81228966D01*
X132487406Y-81322617D01*
X132479802Y-81325767D01*
X132218502Y-81454625D01*
X132211365Y-81458746D01*
X131969125Y-81620605D01*
X131962583Y-81625625D01*
X131945437Y-81640661D01*
X131937041Y-81653898D01*
X128666939Y-81653898D01*
X128585375Y-81488502D01*
X128581254Y-81481365D01*
X128419395Y-81239125D01*
X128414375Y-81232583D01*
X128399339Y-81215437D01*
X128386102Y-81207041D01*
X128376335Y-81212875D01*
X126972022Y-82617188D01*
X126964408Y-82631132D01*
X126234356Y-82631132D01*
X126235592Y-82628868D01*
X126235461Y-82627035D01*
X126231210Y-82620420D01*
X124825418Y-81214628D01*
X124811658Y-81207114D01*
X124802296Y-81213573D01*
X124785625Y-81232583D01*
X124780605Y-81239125D01*
X124618746Y-81481365D01*
X124614625Y-81488502D01*
X124485767Y-81749802D01*
X124482617Y-81757406D01*
X124388966Y-82033293D01*
X124386835Y-82041245D01*
X124329995Y-82326999D01*
X124328921Y-82335157D01*
X124309866Y-82625881D01*
X124309866Y-82634119D01*
X121980029Y-82634119D01*
X121957383Y-82567406D01*
X121954233Y-82559802D01*
X121825375Y-82298502D01*
X121821254Y-82291365D01*
X121659395Y-82049125D01*
X121654375Y-82042583D01*
X121639339Y-82025437D01*
X121626102Y-82017041D01*
X121616335Y-82022875D01*
X120212022Y-83427188D01*
X120204408Y-83441132D01*
X119474356Y-83441132D01*
X119475592Y-83438868D01*
X119475461Y-83437035D01*
X119471210Y-83430420D01*
X118065418Y-82024628D01*
X118051658Y-82017114D01*
X118042296Y-82023573D01*
X118025625Y-82042583D01*
X118020605Y-82049125D01*
X117858746Y-82291365D01*
X117854625Y-82298502D01*
X117810078Y-82388835D01*
X117762010Y-82441084D01*
X117693324Y-82459051D01*
X117625828Y-82437032D01*
X117580952Y-82382017D01*
X117571072Y-82333107D01*
X117571072Y-81653898D01*
X118417041Y-81653898D01*
X118422875Y-81663665D01*
X119827188Y-83067978D01*
X119841132Y-83075592D01*
X119842965Y-83075461D01*
X119849580Y-83071210D01*
X121255372Y-81665418D01*
X121262886Y-81651658D01*
X121256427Y-81642296D01*
X121237417Y-81625625D01*
X121230875Y-81620605D01*
X120988635Y-81458746D01*
X120981498Y-81454625D01*
X120720198Y-81325767D01*
X120712594Y-81322617D01*
X120436707Y-81228966D01*
X120428755Y-81226835D01*
X120143001Y-81169995D01*
X120134843Y-81168921D01*
X119844119Y-81149866D01*
X119835881Y-81149866D01*
X119545157Y-81168921D01*
X119536999Y-81169995D01*
X119251245Y-81226835D01*
X119243293Y-81228966D01*
X118967406Y-81322617D01*
X118959802Y-81325767D01*
X118698502Y-81454625D01*
X118691365Y-81458746D01*
X118449125Y-81620605D01*
X118442583Y-81625625D01*
X118425437Y-81640661D01*
X118417041Y-81653898D01*
X117571072Y-81653898D01*
X117571072Y-80843898D01*
X125177041Y-80843898D01*
X125182875Y-80853665D01*
X126587188Y-82257978D01*
X126601132Y-82265592D01*
X126602965Y-82265461D01*
X126609580Y-82261210D01*
X128015372Y-80855418D01*
X128022886Y-80841658D01*
X128016427Y-80832296D01*
X127997417Y-80815625D01*
X127990875Y-80810605D01*
X127748635Y-80648746D01*
X127741498Y-80644625D01*
X127480198Y-80515767D01*
X127472594Y-80512617D01*
X127196707Y-80418966D01*
X127188755Y-80416835D01*
X126903001Y-80359995D01*
X126894843Y-80358921D01*
X126604119Y-80339866D01*
X126595881Y-80339866D01*
X126305157Y-80358921D01*
X126296999Y-80359995D01*
X126011245Y-80416835D01*
X126003293Y-80418966D01*
X125727406Y-80512617D01*
X125719802Y-80515767D01*
X125458502Y-80644625D01*
X125451365Y-80648746D01*
X125209125Y-80810605D01*
X125202583Y-80815625D01*
X125185437Y-80830661D01*
X125177041Y-80843898D01*
X117571072Y-80843898D01*
X117571072Y-78584000D01*
X117591074Y-78515879D01*
X117644730Y-78469386D01*
X117697072Y-78458000D01*
X135501977Y-78458000D01*
X135570098Y-78478002D01*
G37*
%TD.AperFunction*%
%TD*%
M02*
