%TF.GenerationSoftware,KiCad,Pcbnew,(6.99.0)*%
%TF.CreationDate,2022-02-09T14:01:32-06:00*%
%TF.ProjectId,CDI-SPLITTER,4344492d-5350-44c4-9954-5445522e6b69,rev?*%
%TF.SameCoordinates,Original*%
%TF.FileFunction,Paste,Top*%
%TF.FilePolarity,Positive*%
%FSLAX46Y46*%
G04 Gerber Fmt 4.6, Leading zero omitted, Abs format (unit mm)*
G04 Created by KiCad (PCBNEW (6.99.0)) date 2022-02-09 14:01:32*
%MOMM*%
%LPD*%
G01*
G04 APERTURE LIST*
%ADD10C,0.250000*%
G04 APERTURE END LIST*
D10*
X126064285Y-104240178D02*
X126004761Y-104299702D01*
X125826190Y-104359226D01*
X125707142Y-104359226D01*
X125528571Y-104299702D01*
X125409523Y-104180654D01*
X125350000Y-104061607D01*
X125290476Y-103823511D01*
X125290476Y-103644940D01*
X125350000Y-103406845D01*
X125409523Y-103287797D01*
X125528571Y-103168750D01*
X125707142Y-103109226D01*
X125826190Y-103109226D01*
X126004761Y-103168750D01*
X126064285Y-103228273D01*
X126600000Y-104359226D02*
X126600000Y-103109226D01*
X126897619Y-103109226D01*
X127076190Y-103168750D01*
X127195238Y-103287797D01*
X127254761Y-103406845D01*
X127314285Y-103644940D01*
X127314285Y-103823511D01*
X127254761Y-104061607D01*
X127195238Y-104180654D01*
X127076190Y-104299702D01*
X126897619Y-104359226D01*
X126600000Y-104359226D01*
X127850000Y-104359226D02*
X127850000Y-103525892D01*
X127850000Y-103109226D02*
X127790476Y-103168750D01*
X127850000Y-103228273D01*
X127909523Y-103168750D01*
X127850000Y-103109226D01*
X127850000Y-103228273D01*
X122671428Y-106312202D02*
X122850000Y-106371726D01*
X123147619Y-106371726D01*
X123266666Y-106312202D01*
X123326190Y-106252678D01*
X123385714Y-106133630D01*
X123385714Y-106014583D01*
X123326190Y-105895535D01*
X123266666Y-105836011D01*
X123147619Y-105776488D01*
X122909523Y-105716964D01*
X122790476Y-105657440D01*
X122730952Y-105597916D01*
X122671428Y-105478869D01*
X122671428Y-105359821D01*
X122730952Y-105240773D01*
X122790476Y-105181250D01*
X122909523Y-105121726D01*
X123207142Y-105121726D01*
X123385714Y-105181250D01*
X123921428Y-106371726D02*
X123921428Y-105121726D01*
X124397619Y-105121726D01*
X124516666Y-105181250D01*
X124576190Y-105240773D01*
X124635714Y-105359821D01*
X124635714Y-105538392D01*
X124576190Y-105657440D01*
X124516666Y-105716964D01*
X124397619Y-105776488D01*
X123921428Y-105776488D01*
X125766666Y-106371726D02*
X125171428Y-106371726D01*
X125171428Y-105121726D01*
X126183333Y-106371726D02*
X126183333Y-105121726D01*
X126600000Y-105121726D02*
X127314285Y-105121726D01*
X126957142Y-106371726D02*
X126957142Y-105121726D01*
X127552380Y-105121726D02*
X128266666Y-105121726D01*
X127909523Y-106371726D02*
X127909523Y-105121726D01*
X128683333Y-105716964D02*
X129100000Y-105716964D01*
X129278571Y-106371726D02*
X128683333Y-106371726D01*
X128683333Y-105121726D01*
X129278571Y-105121726D01*
X130528571Y-106371726D02*
X130111904Y-105776488D01*
X129814285Y-106371726D02*
X129814285Y-105121726D01*
X130290476Y-105121726D01*
X130409523Y-105181250D01*
X130469047Y-105240773D01*
X130528571Y-105359821D01*
X130528571Y-105538392D01*
X130469047Y-105657440D01*
X130409523Y-105716964D01*
X130290476Y-105776488D01*
X129814285Y-105776488D01*
M02*
