M48
; DRILL file {KiCad (6.99.0)} date Wednesday, February 09, 2022 at 02:01:39 PM
; FORMAT={-:-/ absolute / inch / decimal}
; #@! TF.CreationDate,2022-02-09T14:01:39-06:00
; #@! TF.GenerationSoftware,Kicad,Pcbnew,(6.99.0)
; #@! TF.FileFunction,Plated,1,2,PTH
FMAT,2
INCH
; #@! TA.AperFunction,Plated,PTH,ComponentDrill
T1C0.0382
; #@! TA.AperFunction,Plated,PTH,ComponentDrill
T2C0.0933
%
G90
G05
T1
X4.4035Y-3.8154
X4.4035Y-3.9134
X4.4843Y-3.9134
X4.5035Y-3.8154
X4.5866Y-3.8154
X4.5866Y-3.9134
X4.6673Y-3.8154
X4.6673Y-3.9134
X4.8524Y-3.4031
X4.8524Y-3.5012
X4.9331Y-3.4031
X4.9331Y-3.5012
X5.0161Y-3.5012
X5.0354Y-3.4031
X5.1161Y-3.4031
X5.1161Y-3.5012
X5.3012Y-3.8154
X5.3012Y-3.9134
X5.3819Y-3.9134
X5.4012Y-3.8154
X5.4843Y-3.8154
X5.4843Y-3.9134
X5.565Y-3.8154
X5.565Y-3.9134
T2
X4.2693Y-4.0315
X4.5354Y-4.0634
X4.7181Y-3.285
X4.8016Y-4.0315
X4.9843Y-3.2531
X5.1669Y-4.0315
X5.2504Y-3.285
X5.4331Y-4.0634
X5.6992Y-4.0315
T0
M30
